<?xml version="1.0" encoding="UTF-8"?>
<svg version="1.1" xmlns="http://www.w3.org/2000/svg" width="736" height="736">
<path d="M0 0 C1.14662109 -0.01611328 2.29324219 -0.03222656 3.47460938 -0.04882812 C10.34659742 -0.0527172 16.36712619 0.69414008 22.95776367 2.66723633 C25.72833592 3.43284273 25.72833592 3.43284273 28.8215332 3.3112793 C32.42694593 3.31281495 34.59475445 4.54521683 37.6875 6.3125 C37.6875 6.9725 37.6875 7.6325 37.6875 8.3125 C38.533125 8.374375 39.37875 8.43625 40.25 8.5 C44.51389879 9.50783062 47.42433566 11.42689186 50.6875 14.3125 C51.0175 14.9725 51.3475 15.6325 51.6875 16.3125 C52.3475 16.6425 53.0075 16.9725 53.6875 17.3125 C55.6875 18.3125 55.6875 18.3125 56.6875 20.3125 C57.6775 20.6425 58.6675 20.9725 59.6875 21.3125 C60.0175 21.9725 60.3475 22.6325 60.6875 23.3125 C61.3475 23.6425 62.0075 23.9725 62.6875 24.3125 C64.6875 25.3125 64.6875 25.3125 65.6875 27.3125 C66.3475 27.6425 67.0075 27.9725 67.6875 28.3125 C69.6875 29.3125 69.6875 29.3125 70.6875 31.3125 C71.3475 31.6425 72.0075 31.9725 72.6875 32.3125 C74.6875 33.3125 74.6875 33.3125 75.6875 35.3125 C76.6775 35.6425 77.6675 35.9725 78.6875 36.3125 C79.0175 37.3025 79.3475 38.2925 79.6875 39.3125 C80.3475 39.4775 81.0075 39.6425 81.6875 39.8125 C82.3475 39.9775 83.0075 40.1425 83.6875 40.3125 C84.0175 41.3025 84.3475 42.2925 84.6875 43.3125 C86.01053717 43.6846042 87.34487935 44.01880173 88.6875 44.3125 C89.0175 44.9725 89.3475 45.6325 89.6875 46.3125 C90.3475 46.6425 91.0075 46.9725 91.6875 47.3125 C93.6875 48.3125 93.6875 48.3125 94.6875 50.3125 C95.3475 50.6425 96.0075 50.9725 96.6875 51.3125 C98.6875 52.3125 98.6875 52.3125 99.6875 54.3125 C100.6775 54.6425 101.6675 54.9725 102.6875 55.3125 C103.0175 55.9725 103.3475 56.6325 103.6875 57.3125 C104.3475 57.6425 105.0075 57.9725 105.6875 58.3125 C107.6875 59.3125 107.6875 59.3125 108.6875 61.3125 C109.3475 61.6425 110.0075 61.9725 110.6875 62.3125 C112.6875 63.3125 112.6875 63.3125 113.6875 65.3125 C114.6775 65.6425 115.6675 65.9725 116.6875 66.3125 C117.0175 67.3025 117.3475 68.2925 117.6875 69.3125 C118.3475 69.4775 119.0075 69.6425 119.6875 69.8125 C120.3475 69.9775 121.0075 70.1425 121.6875 70.3125 C122.0175 71.3025 122.3475 72.2925 122.6875 73.3125 C124.01053717 73.6846042 125.34487935 74.01880173 126.6875 74.3125 C127.0175 74.9725 127.3475 75.6325 127.6875 76.3125 C128.3475 76.6425 129.0075 76.9725 129.6875 77.3125 C131.6875 78.3125 131.6875 78.3125 132.6875 80.3125 C133.3475 80.6425 134.0075 80.9725 134.6875 81.3125 C136.6875 82.3125 136.6875 82.3125 137.6875 84.3125 C138.6775 84.6425 139.6675 84.9725 140.6875 85.3125 C141.0175 85.9725 141.3475 86.6325 141.6875 87.3125 C142.3475 87.6425 143.0075 87.9725 143.6875 88.3125 C145.6875 89.3125 145.6875 89.3125 146.6875 91.3125 C147.3475 91.6425 148.0075 91.9725 148.6875 92.3125 C150.6875 93.3125 150.6875 93.3125 151.6875 95.3125 C152.3475 95.6425 153.0075 95.9725 153.6875 96.3125 C155.6875 97.3125 155.6875 97.3125 156.6875 99.3125 C157.6775 99.6425 158.6675 99.9725 159.6875 100.3125 C160.0175 101.3025 160.3475 102.2925 160.6875 103.3125 C162.01053717 103.6846042 163.34487935 104.01880173 164.6875 104.3125 C165.0175 104.9725 165.3475 105.6325 165.6875 106.3125 C166.3475 106.6425 167.0075 106.9725 167.6875 107.3125 C169.6875 108.3125 169.6875 108.3125 170.6875 110.3125 C171.3475 110.6425 172.0075 110.9725 172.6875 111.3125 C174.6875 112.3125 174.6875 112.3125 175.6875 114.3125 C176.6775 114.6425 177.6675 114.9725 178.6875 115.3125 C179.0175 116.3025 179.3475 117.2925 179.6875 118.3125 C181.01053717 118.6846042 182.34487935 119.01880173 183.6875 119.3125 C184.0175 119.9725 184.3475 120.6325 184.6875 121.3125 C185.3475 121.6425 186.0075 121.9725 186.6875 122.3125 C188.6875 123.3125 188.6875 123.3125 189.6875 125.3125 C190.3475 125.6425 191.0075 125.9725 191.6875 126.3125 C193.6875 127.3125 193.6875 127.3125 194.6875 129.3125 C195.6775 129.6425 196.6675 129.9725 197.6875 130.3125 C198.0175 131.3025 198.3475 132.2925 198.6875 133.3125 C200.01053717 133.6846042 201.34487935 134.01880173 202.6875 134.3125 C203.0175 134.9725 203.3475 135.6325 203.6875 136.3125 C204.3475 136.6425 205.0075 136.9725 205.6875 137.3125 C207.6875 138.3125 207.6875 138.3125 208.6875 140.3125 C209.3475 140.6425 210.0075 140.9725 210.6875 141.3125 C212.6875 142.3125 212.6875 142.3125 213.6875 144.3125 C214.6775 144.6425 215.6675 144.9725 216.6875 145.3125 C217.0175 146.3025 217.3475 147.2925 217.6875 148.3125 C219.01053717 148.6846042 220.34487935 149.01880173 221.6875 149.3125 C222.0175 149.9725 222.3475 150.6325 222.6875 151.3125 C223.3475 151.6425 224.0075 151.9725 224.6875 152.3125 C226.6875 153.3125 226.6875 153.3125 227.6875 155.3125 C228.3475 155.6425 229.0075 155.9725 229.6875 156.3125 C231.6875 157.3125 231.6875 157.3125 232.6875 159.3125 C233.6775 159.6425 234.6675 159.9725 235.6875 160.3125 C236.0175 161.3025 236.3475 162.2925 236.6875 163.3125 C238.01053717 163.6846042 239.34487935 164.01880173 240.6875 164.3125 C241.0175 164.9725 241.3475 165.6325 241.6875 166.3125 C242.3475 166.6425 243.0075 166.9725 243.6875 167.3125 C245.6875 168.3125 245.6875 168.3125 246.6875 170.3125 C247.3475 170.6425 248.0075 170.9725 248.6875 171.3125 C250.6875 172.3125 250.6875 172.3125 251.6875 174.3125 C252.6775 174.6425 253.6675 174.9725 254.6875 175.3125 C255.0175 176.3025 255.3475 177.2925 255.6875 178.3125 C256.3475 178.4775 257.0075 178.6425 257.6875 178.8125 C258.3475 178.9775 259.0075 179.1425 259.6875 179.3125 C260.0175 180.3025 260.3475 181.2925 260.6875 182.3125 C261.3475 182.4775 262.0075 182.6425 262.6875 182.8125 C263.3475 182.9775 264.0075 183.1425 264.6875 183.3125 C265.0175 184.3025 265.3475 185.2925 265.6875 186.3125 C267.01053717 186.6846042 268.34487935 187.01880173 269.6875 187.3125 C270.0175 187.9725 270.3475 188.6325 270.6875 189.3125 C271.3475 189.6425 272.0075 189.9725 272.6875 190.3125 C274.6875 191.3125 274.6875 191.3125 275.6875 193.3125 C276.6775 193.6425 277.6675 193.9725 278.6875 194.3125 C279.0175 194.9725 279.3475 195.6325 279.6875 196.3125 C280.3475 196.6425 281.0075 196.9725 281.6875 197.3125 C283.6875 198.3125 283.6875 198.3125 284.6875 200.3125 C285.3475 200.6425 286.0075 200.9725 286.6875 201.3125 C288.6875 202.3125 288.6875 202.3125 289.6875 204.3125 C290.3475 204.6425 291.0075 204.9725 291.6875 205.3125 C293.6875 206.3125 293.6875 206.3125 294.6875 208.3125 C295.6775 208.6425 296.6675 208.9725 297.6875 209.3125 C298.0175 210.3025 298.3475 211.2925 298.6875 212.3125 C299.3475 212.4775 300.0075 212.6425 300.6875 212.8125 C301.3475 212.9775 302.0075 213.1425 302.6875 213.3125 C303.0175 214.3025 303.3475 215.2925 303.6875 216.3125 C305.01053717 216.6846042 306.34487935 217.01880173 307.6875 217.3125 C308.0175 217.9725 308.3475 218.6325 308.6875 219.3125 C309.3475 219.6425 310.0075 219.9725 310.6875 220.3125 C312.6875 221.3125 312.6875 221.3125 313.6875 223.3125 C314.6775 223.6425 315.6675 223.9725 316.6875 224.3125 C317.0175 224.9725 317.3475 225.6325 317.6875 226.3125 C318.3475 226.6425 319.0075 226.9725 319.6875 227.3125 C321.6875 228.3125 321.6875 228.3125 322.6875 230.3125 C323.3475 230.6425 324.0075 230.9725 324.6875 231.3125 C326.6875 232.3125 326.6875 232.3125 327.6875 234.3125 C328.3475 234.6425 329.0075 234.9725 329.6875 235.3125 C331.6875 236.3125 331.6875 236.3125 332.6875 238.3125 C333.6775 238.6425 334.6675 238.9725 335.6875 239.3125 C336.0175 240.3025 336.3475 241.2925 336.6875 242.3125 C338.01053717 242.6846042 339.34487935 243.01880173 340.6875 243.3125 C341.0175 243.9725 341.3475 244.6325 341.6875 245.3125 C342.3475 245.6425 343.0075 245.9725 343.6875 246.3125 C345.6875 247.3125 345.6875 247.3125 346.6875 249.3125 C347.3475 249.6425 348.0075 249.9725 348.6875 250.3125 C350.6875 251.3125 350.6875 251.3125 351.6875 253.3125 C352.6775 253.6425 353.6675 253.9725 354.6875 254.3125 C355.0175 255.3025 355.3475 256.2925 355.6875 257.3125 C357.01053717 257.6846042 358.34487935 258.01880173 359.6875 258.3125 C360.0175 258.9725 360.3475 259.6325 360.6875 260.3125 C361.3475 260.6425 362.0075 260.9725 362.6875 261.3125 C364.6875 262.3125 364.6875 262.3125 365.6875 264.3125 C366.3475 264.6425 367.0075 264.9725 367.6875 265.3125 C369.6875 266.3125 369.6875 266.3125 370.6875 268.3125 C371.6775 268.6425 372.6675 268.9725 373.6875 269.3125 C374.0175 270.3025 374.3475 271.2925 374.6875 272.3125 C375.3475 272.4775 376.0075 272.6425 376.6875 272.8125 C377.3475 272.9775 378.0075 273.1425 378.6875 273.3125 C379.0175 274.3025 379.3475 275.2925 379.6875 276.3125 C381.01053717 276.6846042 382.34487935 277.01880173 383.6875 277.3125 C384.0175 277.9725 384.3475 278.6325 384.6875 279.3125 C385.3475 279.6425 386.0075 279.9725 386.6875 280.3125 C388.6875 281.3125 388.6875 281.3125 389.6875 283.3125 C390.3475 283.6425 391.0075 283.9725 391.6875 284.3125 C393.6875 285.3125 393.6875 285.3125 394.6875 287.3125 C395.6775 287.6425 396.6675 287.9725 397.6875 288.3125 C398.0175 288.9725 398.3475 289.6325 398.6875 290.3125 C399.3475 290.6425 400.0075 290.9725 400.6875 291.3125 C402.6875 292.3125 402.6875 292.3125 403.6875 294.3125 C404.3475 294.6425 405.0075 294.9725 405.6875 295.3125 C407.6875 296.3125 407.6875 296.3125 408.6875 298.3125 C409.6775 298.6425 410.6675 298.9725 411.6875 299.3125 C412.0175 300.3025 412.3475 301.2925 412.6875 302.3125 C413.3475 302.4775 414.0075 302.6425 414.6875 302.8125 C415.3475 302.9775 416.0075 303.1425 416.6875 303.3125 C417.0175 304.3025 417.3475 305.2925 417.6875 306.3125 C419.01053717 306.6846042 420.34487935 307.01880173 421.6875 307.3125 C422.0175 307.9725 422.3475 308.6325 422.6875 309.3125 C423.3475 309.6425 424.0075 309.9725 424.6875 310.3125 C426.6875 311.3125 426.6875 311.3125 427.6875 313.3125 C428.3475 313.6425 429.0075 313.9725 429.6875 314.3125 C431.6875 315.3125 431.6875 315.3125 432.6875 317.3125 C433.6775 317.6425 434.6675 317.9725 435.6875 318.3125 C436.0175 319.3025 436.3475 320.2925 436.6875 321.3125 C438.01053717 321.6846042 439.34487935 322.01880173 440.6875 322.3125 C441.0175 322.9725 441.3475 323.6325 441.6875 324.3125 C442.3475 324.6425 443.0075 324.9725 443.6875 325.3125 C445.6875 326.3125 445.6875 326.3125 446.6875 328.3125 C447.3475 328.6425 448.0075 328.9725 448.6875 329.3125 C450.6875 330.3125 450.6875 330.3125 451.6875 332.3125 C452.6775 332.6425 453.6675 332.9725 454.6875 333.3125 C455.0175 334.3025 455.3475 335.2925 455.6875 336.3125 C456.3475 336.4775 457.0075 336.6425 457.6875 336.8125 C458.3475 336.9775 459.0075 337.1425 459.6875 337.3125 C460.0175 338.3025 460.3475 339.2925 460.6875 340.3125 C462.01053717 340.6846042 463.34487935 341.01880173 464.6875 341.3125 C465.0175 341.9725 465.3475 342.6325 465.6875 343.3125 C466.3475 343.6425 467.0075 343.9725 467.6875 344.3125 C469.6875 345.3125 469.6875 345.3125 470.6875 347.3125 C471.6775 347.6425 472.6675 347.9725 473.6875 348.3125 C474.0175 349.3025 474.3475 350.2925 474.6875 351.3125 C476.01053717 351.6846042 477.34487935 352.01880173 478.6875 352.3125 C479.0175 352.9725 479.3475 353.6325 479.6875 354.3125 C480.3475 354.6425 481.0075 354.9725 481.6875 355.3125 C483.6875 356.3125 483.6875 356.3125 484.6875 358.3125 C485.3475 358.6425 486.0075 358.9725 486.6875 359.3125 C488.6875 360.3125 488.6875 360.3125 489.6875 362.3125 C490.6775 362.6425 491.6675 362.9725 492.6875 363.3125 C493.0175 364.3025 493.3475 365.2925 493.6875 366.3125 C494.3475 366.4775 495.0075 366.6425 495.6875 366.8125 C496.3475 366.9775 497.0075 367.1425 497.6875 367.3125 C498.0175 368.3025 498.3475 369.2925 498.6875 370.3125 C500.01053717 370.6846042 501.34487935 371.01880173 502.6875 371.3125 C503.0175 371.9725 503.3475 372.6325 503.6875 373.3125 C504.3475 373.621875 505.0075 373.93125 505.6875 374.25 C507.6875 375.3125 507.6875 375.3125 508.6875 378.3125 C509.30625 378.43625 509.925 378.56 510.5625 378.6875 C513.65869505 379.5981456 514.05864317 381.56835532 515.6875 384.3125 C517.22762013 386.12344055 518.79238319 387.91357787 520.375 389.6875 C537.21883599 409.35102261 539.98153325 432.19564841 538.6875 457.3125 C536.71227781 475.87023418 524.78776005 494.01311498 511.47265625 506.4375 C509.46052644 508.28486976 509.46052644 508.28486976 508.6875 511.3125 C507.6975 511.6425 506.7075 511.9725 505.6875 512.3125 C505.048125 512.9725 504.40875 513.6325 503.75 514.3125 C501.54481569 516.45086055 500.57005079 516.66160144 497.6875 517.3125 C496.66645449 518.29100195 495.6668879 519.29230427 494.6875 520.3125 C491.9135557 522.1617962 490.16586531 522.36217949 486.75 522.6875 C483.57609706 523.00313676 482.79855079 523.22365937 480.1875 525.3125 C476.70601536 528.09768771 474.08835641 528.01413685 469.6875 528.3125 C469.6875 528.9725 469.6875 529.6325 469.6875 530.3125 C468.8625 530.250625 468.0375 530.18875 467.1875 530.125 C462.80556304 530.35974662 459.73254918 531.63868654 455.6875 533.3125 C455.6875 533.9725 455.6875 534.6325 455.6875 535.3125 C451.85760894 537.11480168 448.90628192 537.50872241 444.6875 537.3125 C444.6875 537.9725 444.6875 538.6325 444.6875 539.3125 C443.924375 539.456875 443.16125 539.60125 442.375 539.75 C438.90102625 540.47711078 436.66661027 541.32642649 433.6875 543.3125 C428.40061368 545.80579923 423.64662122 547.93977592 417.6875 547.3125 C417.6875 547.9725 417.6875 548.6325 417.6875 549.3125 C416.5428125 549.2196875 416.5428125 549.2196875 415.375 549.125 C412.66661208 549.00349541 412.66661208 549.00349541 411.375 550.75 C408.59762153 553.32164674 405.38512964 553.0094156 401.6875 553.3125 C401.6875 553.9725 401.6875 554.6325 401.6875 555.3125 C400.759375 555.250625 399.83125 555.18875 398.875 555.125 C395.1985778 555.34126013 395.0701898 555.82621499 392.6875 558.3125 C390 558.5 390 558.5 387.6875 558.3125 C387.6875 558.9725 387.6875 559.6325 387.6875 560.3125 C386.0375 560.3125 384.3875 560.3125 382.6875 560.3125 C382.6875 560.9725 382.6875 561.6325 382.6875 562.3125 C380.7075 562.3125 378.7275 562.3125 376.6875 562.3125 C376.6875 562.9725 376.6875 563.6325 376.6875 564.3125 C375.924375 564.456875 375.16125 564.60125 374.375 564.75 C370.90102625 565.47711078 368.66661027 566.32642649 365.6875 568.3125 C364.02928227 568.68559899 362.36172986 569.01950977 360.6875 569.3125 C359.6975 569.6425 358.7075 569.9725 357.6875 570.3125 C356.6975 570.6425 355.7075 570.9725 354.6875 571.3125 C352.46010299 572.37451737 352.46010299 572.37451737 349.6875 574.3125 C347 574.4375 347 574.4375 344.6875 574.3125 C344.6875 574.9725 344.6875 575.6325 344.6875 576.3125 C342.7075 576.3125 340.7275 576.3125 338.6875 576.3125 C338.6875 576.9725 338.6875 577.6325 338.6875 578.3125 C337.0375 578.3125 335.3875 578.3125 333.6875 578.3125 C333.6875 578.9725 333.6875 579.6325 333.6875 580.3125 C330.61132812 580.60546875 330.61132812 580.60546875 327.53515625 580.8984375 C326.92542969 581.03507813 326.31570313 581.17171875 325.6875 581.3125 C325.3575 581.9725 325.0275 582.6325 324.6875 583.3125 C323.0375 583.3125 321.3875 583.3125 319.6875 583.3125 C319.6875 583.9725 319.6875 584.6325 319.6875 585.3125 C315.85760894 587.11480168 312.90628192 587.50872241 308.6875 587.3125 C308.6875 587.9725 308.6875 588.6325 308.6875 589.3125 C307.924375 589.456875 307.16125 589.60125 306.375 589.75 C303.60577092 590.2757594 303.60577092 590.2757594 300.6875 591.3125 C299.6975 591.6425 298.7075 591.9725 297.6875 592.3125 C297.0275 592.6425 296.3675 592.9725 295.6875 593.3125 C292.6875 594.3125 289.6875 595.3125 286.6875 596.3125 C284.46010299 597.37451737 284.46010299 597.37451737 281.6875 599.3125 C279 599.4375 279 599.4375 276.6875 599.3125 C276.6875 599.9725 276.6875 600.6325 276.6875 601.3125 C274.7075 601.3125 272.7275 601.3125 270.6875 601.3125 C270.6875 601.9725 270.6875 602.6325 270.6875 603.3125 C269.0375 603.3125 267.3875 603.3125 265.6875 603.3125 C265.6875 603.9725 265.6875 604.6325 265.6875 605.3125 C264.92824219 605.51746094 264.16898437 605.72242188 263.38671875 605.93359375 C262.39285156 606.20300781 261.39898437 606.47242188 260.375 606.75 C258.89580078 607.15025391 258.89580078 607.15025391 257.38671875 607.55859375 C253.12296887 608.68165309 253.12296887 608.68165309 249.6875 611.3125 C247.5234375 611.7265625 247.5234375 611.7265625 245.0625 611.9375 C244.24523437 612.01226563 243.42796875 612.08703125 242.5859375 612.1640625 C241.95945312 612.21304688 241.33296875 612.26203125 240.6875 612.3125 C240.6875 612.9725 240.6875 613.6325 240.6875 614.3125 C239.924375 614.456875 239.16125 614.60125 238.375 614.75 C235.60577092 615.2757594 235.60577092 615.2757594 232.6875 616.3125 C231.6975 616.6425 230.7075 616.9725 229.6875 617.3125 C229.0275 617.6425 228.3675 617.9725 227.6875 618.3125 C224.6875 619.3125 221.6875 620.3125 218.6875 621.3125 C216.46010299 622.37451737 216.46010299 622.37451737 213.6875 624.3125 C211 624.4375 211 624.4375 208.6875 624.3125 C208.6875 624.9725 208.6875 625.6325 208.6875 626.3125 C206.7075 626.3125 204.7275 626.3125 202.6875 626.3125 C202.6875 626.9725 202.6875 627.6325 202.6875 628.3125 C201.0375 628.3125 199.3875 628.3125 197.6875 628.3125 C197.6875 628.9725 197.6875 629.6325 197.6875 630.3125 C195.0475 630.6425 192.4075 630.9725 189.6875 631.3125 C189.6875 631.9725 189.6875 632.6325 189.6875 633.3125 C187.7075 633.3125 185.7275 633.3125 183.6875 633.3125 C183.6875 633.9725 183.6875 634.6325 183.6875 635.3125 C179.85760894 637.11480168 176.90628192 637.50872241 172.6875 637.3125 C172.6875 637.9725 172.6875 638.6325 172.6875 639.3125 C171.924375 639.456875 171.16125 639.60125 170.375 639.75 C167.60577092 640.2757594 167.60577092 640.2757594 164.6875 641.3125 C163.6975 641.6425 162.7075 641.9725 161.6875 642.3125 C161.0275 642.6425 160.3675 642.9725 159.6875 643.3125 C157.6875 643.97916667 155.6875 644.64583333 153.6875 645.3125 C153.0275 645.9725 152.3675 646.6325 151.6875 647.3125 C149.59375 647.91015625 149.59375 647.91015625 147.1875 648.375 C143.83290186 649.03202131 143.83290186 649.03202131 140.6875 650.3125 C137.6875 651.3125 134.6875 652.3125 131.6875 653.3125 C129.46010299 654.37451737 129.46010299 654.37451737 126.6875 656.3125 C124 656.4375 124 656.4375 121.6875 656.3125 C121.6875 656.9725 121.6875 657.6325 121.6875 658.3125 C119.7075 658.3125 117.7275 658.3125 115.6875 658.3125 C115.6875 658.9725 115.6875 659.6325 115.6875 660.3125 C113.6510505 661.15850276 111.60806513 661.9887825 109.5625 662.8125 C108.42554688 663.2765625 107.28859375 663.740625 106.1171875 664.21875 C102.7403355 665.29565041 100.20135272 665.52610807 96.6875 665.3125 C96.6875 665.9725 96.6875 666.6325 96.6875 667.3125 C95.0375 667.3125 93.3875 667.3125 91.6875 667.3125 C91.6875 667.9725 91.6875 668.6325 91.6875 669.3125 C90.800625 669.27125 89.91375 669.23 89 669.1875 C85.71472987 669.31147246 83.63300705 669.92637904 80.6875 671.3125 C80.6875 671.9725 80.6875 672.6325 80.6875 673.3125 C78.0475 673.6425 75.4075 673.9725 72.6875 674.3125 C72.6875 674.9725 72.6875 675.6325 72.6875 676.3125 C67.75765675 678.35243514 64.10789575 679.71902968 58.6875 679.3125 C58.6875 679.9725 58.6875 680.6325 58.6875 681.3125 C57.0375 681.3125 55.3875 681.3125 53.6875 681.3125 C53.6875 681.9725 53.6875 682.6325 53.6875 683.3125 C51.7075 683.3125 49.7275 683.3125 47.6875 683.3125 C47.6875 683.9725 47.6875 684.6325 47.6875 685.3125 C43.53569526 687.01770552 39.85177991 688.42649144 35.375 688.875 C31.60571084 689.03999915 31.60571084 689.03999915 28.6875 691.3125 C27.6975 691.6425 26.7075 691.9725 25.6875 692.3125 C23.46010299 693.37451737 23.46010299 693.37451737 20.6875 695.3125 C18.6632704 695.67163751 16.6739056 695.81352988 14.625 695.96875 C12.36869395 696.2355571 12.36869395 696.2355571 9.6875 698.3125 C8.6975 698.6425 7.7075 698.9725 6.6875 699.3125 C4.46010299 700.37451737 4.46010299 700.37451737 1.6875 702.3125 C-2.12630327 704.16786375 -5.08645867 704.50906006 -9.3125 704.3125 C-9.3125 704.9725 -9.3125 705.6325 -9.3125 706.3125 C-10.9625 706.3125 -12.6125 706.3125 -14.3125 706.3125 C-14.3125 706.9725 -14.3125 707.6325 -14.3125 708.3125 C-16.2925 708.3125 -18.2725 708.3125 -20.3125 708.3125 C-20.3125 708.9725 -20.3125 709.6325 -20.3125 710.3125 C-21.9625 710.3125 -23.6125 710.3125 -25.3125 710.3125 C-25.3125 710.9725 -25.3125 711.6325 -25.3125 712.3125 C-26.07175781 712.43367187 -26.83101562 712.55484375 -27.61328125 712.6796875 C-29.10408203 712.93105469 -29.10408203 712.93105469 -30.625 713.1875 C-31.61113281 713.34992187 -32.59726563 713.51234375 -33.61328125 713.6796875 C-36.51309827 714.19335454 -36.51309827 714.19335454 -39.3125 716.3125 C-40.3025 716.6425 -41.2925 716.9725 -42.3125 717.3125 C-44.53989701 718.37451737 -44.53989701 718.37451737 -47.3125 720.3125 C-49.3367296 720.67163751 -51.3260944 720.81352988 -53.375 720.96875 C-55.63130605 721.2355571 -55.63130605 721.2355571 -58.3125 723.3125 C-59.3025 723.6425 -60.2925 723.9725 -61.3125 724.3125 C-61.9725 724.6425 -62.6325 724.9725 -63.3125 725.3125 C-65.3125 725.97916667 -67.3125 726.64583333 -69.3125 727.3125 C-69.9725 727.9725 -70.6325 728.6325 -71.3125 729.3125 C-74.4375 729.4375 -74.4375 729.4375 -77.3125 729.3125 C-77.3125 729.9725 -77.3125 730.6325 -77.3125 731.3125 C-78.9625 731.3125 -80.6125 731.3125 -82.3125 731.3125 C-82.3125 731.9725 -82.3125 732.6325 -82.3125 733.3125 C-85.38867188 733.60546875 -85.38867188 733.60546875 -88.46484375 733.8984375 C-91.1612646 734.23757249 -91.1612646 734.23757249 -93.14941406 734.7890625 C-100.16030672 736.60418034 -106.97554935 736.60858275 -114.1875 736.5625 C-115.39019531 736.57023438 -116.59289062 736.57796875 -117.83203125 736.5859375 C-137.46629902 736.54330065 -137.46629902 736.54330065 -145.3125 731.3125 C-147.3021995 730.92236284 -149.30269869 730.58047351 -151.3125 730.3125 C-151.3125 729.6525 -151.3125 728.9925 -151.3125 728.3125 C-152.18390625 728.22613281 -153.0553125 728.13976562 -153.953125 728.05078125 C-157.79215178 727.20708816 -159.92317807 725.83714713 -163.0625 723.5 C-164.00609375 722.81292969 -164.9496875 722.12585938 -165.921875 721.41796875 C-168.27454921 719.34592398 -169.02149694 718.0751403 -170.3125 715.3125 C-171.73908012 713.70184503 -173.22359142 712.14138291 -174.75 710.625 C-175.92369141 709.44357422 -175.92369141 709.44357422 -177.12109375 708.23828125 C-179.24712611 706.11834657 -179.24712611 706.11834657 -182.3125 705.3125 C-182.8075 703.8275 -182.8075 703.8275 -183.3125 702.3125 C-184.49828381 699.81106083 -185.80798221 697.38910134 -187.1171875 694.94921875 C-205.32662735 660.6179338 -195.38995655 625.62387414 -188.00152338 589.49312043 C-186.76870396 583.45071755 -185.56704792 577.40207356 -184.3618342 571.35411746 C-181.89885062 558.99901824 -179.41106833 546.64904039 -176.90857887 534.30188751 C-174.43160518 522.08022111 -171.96595817 509.8563572 -169.51498985 497.62944794 C-169.36183098 496.86543318 -169.20867212 496.10141842 -169.05087207 495.3142517 C-168.27282567 491.43276745 -167.49497523 487.55124395 -166.71719881 483.6697056 C-161.22071791 456.24108826 -155.6992076 428.81756467 -150.1628418 401.39697266 C-144.8001182 374.83612274 -139.44920481 348.27293755 -134.11401367 321.70654297 C-133.94958878 320.88781819 -133.78516389 320.06909341 -133.61575643 319.22555879 C-132.12812118 311.81808675 -130.64063334 304.41058511 -129.15331905 297.00304861 C-125.61279374 279.36958314 -122.07030989 261.73651143 -118.52653503 244.10369873 C-118.2930027 242.94170693 -118.2930027 242.94170693 -118.05475254 241.75624054 C-111.4744155 209.01508152 -104.88234602 176.27629179 -98.27955938 143.5396528 C-97.35181736 138.93981128 -96.42443498 134.33989738 -95.4971981 129.73995399 C-94.26841177 123.64436611 -93.03879805 117.54894571 -91.80852028 111.45365867 C-91.36673178 109.26436211 -90.92517822 107.07501813 -90.48390148 104.88561836 C-89.30038726 99.01431609 -88.11204631 93.14403414 -86.91572882 87.27532655 C-86.49516756 85.20969238 -86.07606802 83.1437603 -85.65809129 81.07760161 C-84.99638935 77.8108836 -84.32881905 74.54541163 -83.65998363 71.28014755 C-83.45995262 70.28768116 -83.2599216 69.29521476 -83.05382903 68.27267362 C-80.24918287 54.66617572 -74.73158983 43.2569108 -66.9375 31.75 C-65.17454608 29.33716726 -65.17454608 29.33716726 -64.3125 26.3125 C-63.714375 26.044375 -63.11625 25.77625 -62.5 25.5 C-60.00356333 24.36898844 -60.00356333 24.36898844 -58.3125 21.25 C-56.3125 18.3125 -56.3125 18.3125 -54.125 17.625 C-53.526875 17.521875 -52.92875 17.41875 -52.3125 17.3125 C-51.9825 16.3225 -51.6525 15.3325 -51.3125 14.3125 C-48.96206584 12.69474482 -46.6504065 11.23666158 -44.1875 9.8125 C-43.53523437 9.42191406 -42.88296875 9.03132812 -42.2109375 8.62890625 C-35.50429663 4.67677859 -30.25686151 2.17552825 -22.3125 2.3125 C-21.00724364 2.0166396 -19.70920225 1.68799374 -18.41796875 1.3359375 C-12.30294415 -0.07641906 -6.24953948 -0.01738881 0 0 Z " fill="#F6B83E" transform="translate(197.3125,-0.3125)"/>
<path d="M0 0 C11.54687634 7.94724283 15.9447769 19.08197511 20.47988892 31.85424805 C21.75872196 35.45517155 23.05862158 39.04840047 24.35652161 42.64248657 C25.06609756 44.60838172 25.77455412 46.57468122 26.48197937 48.54135132 C30.54816607 59.83933904 34.70875861 71.10228734 38.86825562 82.36618042 C41.11122054 88.44113912 43.35048392 94.51746165 45.58984375 100.59375 C46.0328331 101.79557419 46.47582245 102.99739838 46.93223572 104.23564148 C49.92187689 112.34803755 52.90612681 120.46240013 55.88671875 128.578125 C56.28347305 129.65771988 56.68022736 130.73731476 57.08900452 131.84962463 C59.00533856 137.06568458 60.91713863 142.28331652 62.8190918 147.50463867 C65.85440359 155.82449133 68.8995101 164.12689482 72.234375 172.33203125 C78.09592 186.89128946 82.6697081 201.16484013 77.33203125 216.6796875 C76.2109375 218.8984375 76.2109375 218.8984375 74.89453125 220.9921875 C74.40855469 221.765625 73.92257812 222.5390625 73.421875 223.3359375 C66.63071142 232.96879364 57.16678964 237.76863999 46.28125 241.55078125 C45.19101028 241.94362808 44.10077057 242.33647491 42.97749329 242.7412262 C39.51721177 243.98487412 36.05009491 245.20793095 32.58203125 246.4296875 C29.16723003 247.64802879 25.75397553 248.87062951 22.34085083 250.09365845 C20.10054081 250.89563011 17.85939425 251.69526891 15.61740112 252.49252319 C7.59579509 255.35173075 -0.37131903 258.33481178 -8.29377747 261.45860291 C-19.98500528 266.00948561 -32.25163277 268.60725193 -44.41796875 264.0546875 C-60.48942509 256.35423197 -66.19682299 242.59099218 -71.81152344 226.74462891 C-72.15389038 225.7689093 -72.49625732 224.7931897 -72.84899902 223.78790283 C-74.32413238 219.58494351 -75.82353044 215.39075945 -77.32131958 211.1958313 C-78.10022893 209.01369564 -78.87794879 206.83113506 -79.6545105 204.64816284 C-83.46718047 193.93842806 -87.39971867 183.2747311 -91.35546875 172.6171875 C-92.39825193 169.8032164 -93.4405707 166.98907355 -94.48287964 164.17492676 C-95.20141778 162.23501086 -95.92010842 160.29515144 -96.63894653 158.35534668 C-101.03571288 146.4879973 -105.41234467 134.61322439 -109.78771973 122.73797607 C-111.12462467 119.10981682 -112.46219531 115.4819035 -113.79980469 111.85400391 C-115.84816786 106.29691627 -117.89227146 100.73827646 -119.93389893 95.17871094 C-121.10899354 91.98260052 -122.288602 88.78817781 -123.46826172 85.59375 C-124.20042307 83.60164619 -124.93236768 81.60946271 -125.6640625 79.6171875 C-125.99906265 78.71355469 -126.33406281 77.80992187 -126.67921448 76.87890625 C-126.98544235 76.04230469 -127.29167023 75.20570313 -127.60717773 74.34375 C-127.8738475 73.62010254 -128.14051727 72.89645508 -128.41526794 72.15087891 C-131.51237749 62.46427218 -131.34310897 51.28181873 -127.10546875 41.9921875 C-117.48088944 24.67316132 -99.64037644 19.76983662 -82.09765625 13.41015625 C-80.71466832 12.9057473 -79.33178677 12.40104658 -77.94900513 11.89607239 C-75.08439878 10.85088006 -72.21886406 9.8082919 -69.35253906 8.76782227 C-65.68389178 7.43601012 -62.01722415 6.09884335 -58.35116386 4.7599287 C-55.5104736 3.72285314 -52.66902051 2.68788192 -49.82730484 1.65361977 C-48.4739612 1.16092221 -47.1207967 0.66773228 -45.76781845 0.17403221 C-43.88615599 -0.51207448 -42.00340438 -1.19519194 -40.12060547 -1.87817383 C-38.51848709 -2.46058586 -38.51848709 -2.46058586 -36.88400269 -3.05476379 C-24.4868034 -7.30705475 -11.31761946 -6.56132071 0 0 Z " fill="#FEF8E8" transform="translate(289.10546875,134.0078125)"/>
<path d="M0 0 C16.74429636 9.17495691 21.37274573 26.58355913 27.65454102 43.42114258 C28.38444483 45.36155531 29.12623695 47.29753969 29.88012695 49.22875977 C35.6392615 63.99825462 40.63347928 79.80852775 33.8984375 95.25390625 C26.81447201 107.54164264 18.00601983 113.18776271 4.99609375 117.8203125 C3.50259651 118.36510254 3.50259651 118.36510254 1.97892761 118.92089844 C-1.23857114 120.0921534 -4.46064189 121.25009277 -7.68359375 122.40625 C-11.01939979 123.60942792 -14.35460068 124.81426877 -17.68962097 126.0196228 C-19.89657568 126.81717152 -22.10394128 127.61358417 -24.3117218 128.40884399 C-30.52118587 130.65274435 -36.69211213 132.96900685 -42.828125 135.40625 C-72.0793496 146.95680799 -72.0793496 146.95680799 -86.80859375 141.03125 C-88.08229885 140.322254 -89.33611334 139.57531652 -90.55859375 138.78125 C-91.63109375 138.141875 -92.70359375 137.5025 -93.80859375 136.84375 C-103.20326472 129.79774677 -108.1987245 121.31473962 -112.046875 110.421875 C-112.62987617 108.82167511 -112.62987617 108.82167511 -113.22465515 107.18914795 C-114.45291669 103.8076483 -115.66198787 100.41963964 -116.87109375 97.03125 C-117.70127024 94.74044884 -118.53263911 92.45007942 -119.36523438 90.16015625 C-120.8798029 85.97807889 -122.39234679 81.7953506 -123.88793945 77.60644531 C-124.18738968 76.76897766 -124.4868399 75.93151001 -124.79536438 75.06866455 C-127.71833214 66.30846842 -128.56185218 54.11222909 -124.80859375 45.53125 C-124.09792206 44.2584791 -123.35130773 43.0046079 -122.55859375 41.78125 C-121.96046875 40.75 -121.36234375 39.71875 -120.74609375 38.65625 C-111.91483775 27.0494564 -99.9442037 22.67295505 -86.515625 17.8125 C-85.30774826 17.36910278 -84.09987152 16.92570557 -82.85539246 16.46887207 C-79.67336167 15.30102572 -76.48828613 14.14172055 -73.30249023 12.98419189 C-70.10909337 11.82193833 -66.91901508 10.65064684 -63.72851562 9.48046875 C-57.72649381 7.28068443 -51.71807292 5.0988735 -45.70687866 2.92428589 C-42.87238748 1.8951779 -40.04259701 0.85430769 -37.21411133 -0.19116211 C-35.70667623 -0.74108809 -34.19912009 -1.29068245 -32.69140625 -1.83984375 C-30.83539795 -2.52324829 -30.83539795 -2.52324829 -28.94189453 -3.22045898 C-18.92744546 -6.17536462 -9.24751393 -4.40492267 0 0 Z " fill="#FEF8E8" transform="translate(396.55859375,433.21875)"/>
<path d="M0 0 C0.66 0 1.32 0 2 0 C0.69187747 9.94788854 -1.04237092 19.75599177 -3.0390625 29.5859375 C-3.32800737 31.02317588 -3.61660535 32.46048404 -3.90487671 33.89785767 C-4.65436232 37.63021495 -5.40846731 41.36162335 -6.16363525 45.09283447 C-6.93747772 48.92068787 -7.70681385 52.74944668 -8.4765625 56.578125 C-9.98003833 64.05296191 -11.4884096 71.52679933 -13 79 C-14.485 79.495 -14.485 79.495 -16 80 C-12.81378739 62.12094357 -9.30612833 44.30850552 -5.75 26.5 C-5.52395081 25.36475891 -5.29790161 24.22951782 -5.06500244 23.05987549 C-4.41535746 19.7998827 -3.76288246 16.54047045 -3.109375 13.28125 C-2.91163483 12.28858124 -2.71389465 11.29591248 -2.51016235 10.27316284 C-2.32601776 9.35866364 -2.14187317 8.44416443 -1.95214844 7.50195312 C-1.79180115 6.70180786 -1.63145386 5.9016626 -1.46624756 5.07727051 C-1 3 -1 3 0 0 Z " fill="#F8D440" transform="translate(16,561)"/>
<path d="M0 0 C0.66 0.66 1.32 1.32 2 2 C1.59005703 8.61730194 0.28970372 15.02413631 -1.06640625 21.50390625 C-1.36393044 22.94974342 -1.36393044 22.94974342 -1.66746521 24.42478943 C-2.29532284 27.47149683 -2.92881426 30.51700005 -3.5625 33.5625 C-3.99191092 35.64119872 -4.42095101 37.71997408 -4.84960938 39.79882812 C-5.89545531 44.86678139 -6.94635182 49.93366336 -8 55 C-8.66 55 -9.32 55 -10 55 C-9.42955014 47.94429489 -8.3580261 41.11009659 -6.93359375 34.1796875 C-6.73524429 33.19501495 -6.53689484 32.21034241 -6.33253479 31.1958313 C-5.70541351 28.08794491 -5.0715776 24.98147377 -4.4375 21.875 C-4.00801666 19.75269455 -3.57897601 17.63029947 -3.15039062 15.5078125 C-2.10537253 10.33749506 -1.05485602 5.16831875 0 0 Z " fill="#F8D340" transform="translate(32,479)"/>
<path d="M0 0 C0.66 0.33 1.32 0.66 2 1 C1.43685945 4.52343341 0.3869187 5.85860161 -2.375 8.0625 C-6.11777389 11.17920989 -9.57594254 14.4806791 -13 17.9375 C-13.49290527 18.43451416 -13.98581055 18.93152832 -14.49365234 19.44360352 C-15.66447755 20.62705162 -16.83254331 21.81322877 -18 23 C-18.33 22.01 -18.66 21.02 -19 20 C-18.01 18.515 -18.01 18.515 -17 17 C-16.67 16.01 -16.34 15.02 -16 14 C-15.401875 13.731875 -14.80375 13.46375 -14.1875 13.1875 C-11.69106333 12.05648844 -11.69106333 12.05648844 -10 8.9375 C-8 6 -8 6 -5.8125 5.3125 C-5.214375 5.209375 -4.61625 5.10625 -4 5 C-3.67 4.01 -3.34 3.02 -3 2 C-2.01 1.34 -1.02 0.68 0 0 Z " fill="#F7D03C" transform="translate(149,12)"/>
<path d="M0 0 C0.66 0.33 1.32 0.66 2 1 C1.43223344 8.6944759 0.07139916 16.09167222 -1.5625 23.625 C-1.79646484 24.72457031 -2.03042969 25.82414062 -2.27148438 26.95703125 C-2.84287794 29.63908267 -3.41912813 32.3199884 -4 35 C-4.66 35 -5.32 35 -6 35 C-5.41510891 27.15335863 -4.03520694 19.57263566 -2.4375 11.875 C-2.08655273 10.15410156 -2.08655273 10.15410156 -1.72851562 8.3984375 C-1.15676376 5.5980202 -0.5805121 2.79861203 0 0 Z " fill="#F9D440" transform="translate(67,304)"/>
<path d="M0 0 C0.66 0.33 1.32 0.66 2 1 C1.4533512 9.18088206 -0.17123868 17.01785939 -2 25 C-2.66 25 -3.32 25 -4 25 C-3.42029353 16.50430168 -1.76198299 8.31124051 0 0 Z M-5 25 C-4.01 25.495 -4.01 25.495 -3 26 C-3 27.32 -3 28.64 -3 30 C-3.66 30 -4.32 30 -5 30 C-5 28.35 -5 26.7 -5 25 Z M-6 30 C-5.01 30.495 -5.01 30.495 -4 31 C-4 32.32 -4 33.64 -4 35 C-4.66 35 -5.32 35 -6 35 C-6 33.35 -6 31.7 -6 30 Z " fill="#F8D341" transform="translate(50,389)"/>
<path d="M0 0 C4.95998472 0.61632946 8.93671966 2.79835629 13.3125 5.0625 C14.05306641 5.43955078 14.79363281 5.81660156 15.55664062 6.20507812 C17.37387522 7.13128157 19.18732404 8.06490629 21 9 C20.67 9.66 20.34 10.32 20 11 C17.36 10.67 14.72 10.34 12 10 C12 9.34 12 8.68 12 8 C11.154375 7.938125 10.30875 7.87625 9.4375 7.8125 C4.98240777 6.7594782 2.59409083 4.80339085 -1 2 C-0.67 1.34 -0.34 0.68 0 0 Z M7 4 C8 6 8 6 8 6 Z " fill="#F9CB3A" transform="translate(34,720)"/>
<path d="M0 0 C0.66 0.33 1.32 0.66 2 1 C1.67 3.97 1.34 6.94 1 10 C0.34 10 -0.32 10 -1 10 C-0.67 6.7 -0.34 3.4 0 0 Z M-2 10 C-1.34 10.33 -0.68 10.66 0 11 C-0.33 13.97 -0.66 16.94 -1 20 C-1.66 20 -2.32 20 -3 20 C-2.67 16.7 -2.34 13.4 -2 10 Z M-4 20 C-3.01 20.495 -3.01 20.495 -2 21 C-2 22.32 -2 23.64 -2 25 C-2.66 25 -3.32 25 -4 25 C-4 23.35 -4 21.7 -4 20 Z " fill="#F9D540" transform="translate(79,244)"/>
<path d="M0 0 C3.875 1.75 3.875 1.75 5 4 C5.66 4.33 6.32 4.66 7 5 C9 6 9 6 10 8 C10.99 8.33 11.98 8.66 13 9 C13.6875 11.0625 13.6875 11.0625 14 13 C10.11749407 12.40129582 7.78304956 10.54611851 4.75 8.125 C3.85796875 7.42632812 2.9659375 6.72765625 2.046875 6.0078125 C1.37140625 5.34523438 0.6959375 4.68265625 0 4 C0 2.66666667 0 1.33333333 0 0 Z " fill="#F7CC39" transform="translate(263,27)"/>
<path d="M0 0 C-0.33 0.66 -0.66 1.32 -1 2 C-1.86625 1.95875 -2.7325 1.9175 -3.625 1.875 C-7.00810247 1.83549746 -7.00810247 1.83549746 -10.0625 3.0625 C-13.23859591 4.07614763 -14.84810386 3.92702828 -18 3 C-12.15069491 -0.24961394 -6.5246233 -0.12793379 0 0 Z M-22 3 C-20.68 3 -19.36 3 -18 3 C-18 3.66 -18 4.32 -18 5 C-19.65 5.33 -21.3 5.66 -23 6 C-22.67 5.01 -22.34 4.02 -22 3 Z " fill="#F8D040" transform="translate(193,0)"/>
<path d="M0 0 C0.66 0.33 1.32 0.66 2 1 C1.67 3.97 1.34 6.94 1 10 C0.34 10 -0.32 10 -1 10 C-0.67 6.7 -0.34 3.4 0 0 Z M-2 10 C-1.34 10.33 -0.68 10.66 0 11 C-0.33 13.97 -0.66 16.94 -1 20 C-1.66 20 -2.32 20 -3 20 C-2.67 16.7 -2.34 13.4 -2 10 Z " fill="#F8D341" transform="translate(94,169)"/>
<path d="M0 0 C0 0.99 0 1.98 0 3 C-2.75 4.625 -2.75 4.625 -6 6 C-8.375 5.1875 -8.375 5.1875 -10 4 C-6.87839899 0.56623888 -4.64008112 -1.54669371 0 0 Z M0 0 C0.99 0 1.98 0 3 0 C3 0.66 3 1.32 3 2 C2.01 1.67 1.02 1.34 0 1 C0 0.67 0 0.34 0 0 Z " fill="#F1D638" transform="translate(166,5)"/>
<path d="M0 0 C-0.33 0.66 -0.66 1.32 -1 2 C-0.34 2.33 0.32 2.66 1 3 C-1.97851562 3.29296875 -1.97851562 3.29296875 -4.95703125 3.5859375 C-7.29988142 3.92665391 -7.29988142 3.92665391 -10 6 C-10.99 6.33 -11.98 6.66 -13 7 C-13 5.68 -13 4.36 -13 3 C-11.21189234 2.30329584 -9.41937948 1.61788811 -7.625 0.9375 C-6.62726563 0.55464844 -5.62953125 0.17179688 -4.6015625 -0.22265625 C-2 -1 -2 -1 0 0 Z " fill="#F9CE36" transform="translate(168,710)"/>
<path d="M0 0 C0.99 0.495 0.99 0.495 2 1 C2 2.32 2 3.64 2 5 C1.34 5 0.68 5 0 5 C0 3.35 0 1.7 0 0 Z M-1 5 C-0.34 5.33 0.32 5.66 1 6 C0.67 8.97 0.34 11.94 0 15 C-0.66 15 -1.32 15 -2 15 C-1.67 11.7 -1.34 8.4 -1 5 Z " fill="#F9D441" transform="translate(97,154)"/>
<path d="M0 0 C3.875 1.75 3.875 1.75 5 4 C7.01669827 5.13350534 7.01669827 5.13350534 9 6 C8.67 6.99 8.34 7.98 8 9 C4.11980141 7.74155722 2.0588158 6.57583797 0 3 C0 2.01 0 1.02 0 0 Z " fill="#FCD43A" transform="translate(301,57)"/>
<path d="M0 0 C3 1 3 1 4 3 C6.01669827 4.13350534 6.01669827 4.13350534 8 5 C8 5.99 8 6.98 8 8 C4.00544473 7.38545304 1.25533664 5.29353263 -2 3 C-1.34 2.01 -0.68 1.02 0 0 Z " fill="#FACE3F" transform="translate(245,13)"/>
<path d="M0 0 C3.17218843 3.62535821 4.42902597 7.51150278 6 12 C3 11 3 11 1.83203125 8.71484375 C1.49558594 7.79832031 1.15914062 6.88179688 0.8125 5.9375 C0.46832031 5.01839844 0.12414062 4.09929687 -0.23046875 3.15234375 C-0.48441406 2.44207031 -0.73835937 1.73179687 -1 1 C-0.67 0.67 -0.34 0.34 0 0 Z " fill="#FC883E" transform="translate(726,403)"/>
<path d="M0 0 C0.66 0.66 1.32 1.32 2 2 C1.34 2 0.68 2 0 2 C0 1.34 0 0.68 0 0 Z M-1 2 C-0.34 2.33 0.32 2.66 1 3 C0.67 4.32 0.34 5.64 0 7 C-0.66 7 -1.32 7 -2 7 C-1.67 5.35 -1.34 3.7 -1 2 Z M-3 7 C-2.01 7.495 -2.01 7.495 -1 8 C-1 8.66 -1 9.32 -1 10 C-1.66 10 -2.32 10 -3 10 C-3 9.01 -3 8.02 -3 7 Z M-4 10 C-3.01 10.495 -3.01 10.495 -2 11 C-2 11.66 -2 12.32 -2 13 C-2.66 13 -3.32 13 -4 13 C-4 12.01 -4 11.02 -4 10 Z " fill="#F9D441" transform="translate(121,47)"/>
<path d="M0 0 C2.86453858 3.41016497 4.34703566 6.90694544 6 11 C3 10 3 10 1.3125 7.75 C-0.06511203 4.8635748 -0.26985151 3.14826764 0 0 Z " fill="#FAD441" transform="translate(7,684)"/>
<path d="M0 0 C3.59905908 0.55550695 4.99909799 1.74887248 7.25 4.5625 C8.03117187 5.52349609 8.03117187 5.52349609 8.828125 6.50390625 C9.21484375 6.99761719 9.6015625 7.49132812 10 8 C9.67 8.66 9.34 9.32 9 10 C7.49702124 8.52386015 5.99768715 7.04400843 4.5 5.5625 C3.6646875 4.73878906 2.829375 3.91507813 1.96875 3.06640625 C0 1 0 1 0 0 Z " fill="#F7D140" transform="translate(18,705)"/>
<path d="M0 0 C0.66 0.33 1.32 0.66 2 1 C1.67 3.97 1.34 6.94 1 10 C0.34 10 -0.32 10 -1 10 C-0.67 6.7 -0.34 3.4 0 0 Z " fill="#F8D440" transform="translate(81,234)"/>
<path d="M0 0 C0.94875 0.350625 1.8975 0.70125 2.875 1.0625 C-0.04265 3.0076 -1.75037285 3.51526317 -5.125 4.0625 C-4.465 3.7325 -3.805 3.4025 -3.125 3.0625 C-3.125 2.4025 -3.125 1.7425 -3.125 1.0625 C-3.785 0.7325 -4.445 0.4025 -5.125 0.0625 C-3.125 -0.9375 -3.125 -0.9375 0 0 Z " fill="#F8AF2E" transform="translate(196.125,699.9375)"/>
<path d="M0 0 C0.99 0.33 1.98 0.66 3 1 C3 1.99 3 2.98 3 4 C1.35 4.33 -0.3 4.66 -2 5 C-2 3.68 -2 2.36 -2 1 C-1.34 0.67 -0.68 0.34 0 0 Z " fill="#E7B634" transform="translate(125,724)"/>
<path d="M0 0 C0.33 0 0.66 0 1 0 C1 1.65 1 3.3 1 5 C0.67 5 0.34 5 0 5 C0 3.35 0 1.7 0 0 Z " fill="#FFD42A" transform="translate(0,629)"/>
<path d="M0 0 C0.33 0 0.66 0 1 0 C1 1.65 1 3.3 1 5 C0.67 5 0.34 5 0 5 C0 3.35 0 1.7 0 0 Z " fill="#FFF237" transform="translate(1,624)"/>
<path d="M0 0 C0.33 0 0.66 0 1 0 C1 1.65 1 3.3 1 5 C0.67 5 0.34 5 0 5 C0 3.35 0 1.7 0 0 Z " fill="#FFD42A" transform="translate(2,619)"/>
<path d="M0 0 C0.33 0 0.66 0 1 0 C1 1.65 1 3.3 1 5 C0.67 5 0.34 5 0 5 C0 3.35 0 1.7 0 0 Z " fill="#E1D42A" transform="translate(3,614)"/>
<path d="M0 0 C0.33 0 0.66 0 1 0 C1 1.65 1 3.3 1 5 C0.67 5 0.34 5 0 5 C0 3.35 0 1.7 0 0 Z " fill="#E1D42A" transform="translate(4,609)"/>
<path d="M0 0 C0.33 0 0.66 0 1 0 C1 1.65 1 3.3 1 5 C0.67 5 0.34 5 0 5 C0 3.35 0 1.7 0 0 Z " fill="#EED42A" transform="translate(5,604)"/>
<path d="M0 0 C0.33 0 0.66 0 1 0 C1 1.65 1 3.3 1 5 C0.67 5 0.34 5 0 5 C0 3.35 0 1.7 0 0 Z " fill="#EEE12E" transform="translate(6,599)"/>
<path d="M0 0 C0.33 0 0.66 0 1 0 C1 1.65 1 3.3 1 5 C0.67 5 0.34 5 0 5 C0 3.35 0 1.7 0 0 Z " fill="#FFD42A" transform="translate(7,594)"/>
<path d="M0 0 C0.33 0 0.66 0 1 0 C1 1.65 1 3.3 1 5 C0.67 5 0.34 5 0 5 C0 3.35 0 1.7 0 0 Z " fill="#E1D42A" transform="translate(8,589)"/>
<path d="M0 0 C0.33 0 0.66 0 1 0 C1 1.65 1 3.3 1 5 C0.67 5 0.34 5 0 5 C0 3.35 0 1.7 0 0 Z " fill="#E1D42A" transform="translate(9,584)"/>
<path d="M0 0 C0.33 0 0.66 0 1 0 C1 1.65 1 3.3 1 5 C0.67 5 0.34 5 0 5 C0 3.35 0 1.7 0 0 Z " fill="#EED42A" transform="translate(10,579)"/>
<path d="M0 0 C0.33 0 0.66 0 1 0 C1 1.65 1 3.3 1 5 C0.67 5 0.34 5 0 5 C0 3.35 0 1.7 0 0 Z " fill="#EEE12E" transform="translate(11,574)"/>
<path d="M0 0 C0.33 0 0.66 0 1 0 C1 1.65 1 3.3 1 5 C0.67 5 0.34 5 0 5 C0 3.35 0 1.7 0 0 Z " fill="#FFD42A" transform="translate(12,569)"/>
<path d="M0 0 C0.33 0 0.66 0 1 0 C1 1.65 1 3.3 1 5 C0.67 5 0.34 5 0 5 C0 3.35 0 1.7 0 0 Z " fill="#E1D42A" transform="translate(13,564)"/>
<path d="M0 0 C0.33 0 0.66 0 1 0 C1 1.65 1 3.3 1 5 C0.67 5 0.34 5 0 5 C0 3.35 0 1.7 0 0 Z " fill="#E1D42A" transform="translate(14,559)"/>
<path d="M0 0 C0.33 0 0.66 0 1 0 C1 1.65 1 3.3 1 5 C0.67 5 0.34 5 0 5 C0 3.35 0 1.7 0 0 Z " fill="#FFD42A" transform="translate(15,554)"/>
<path d="M0 0 C0.33 0 0.66 0 1 0 C1 1.65 1 3.3 1 5 C0.67 5 0.34 5 0 5 C0 3.35 0 1.7 0 0 Z " fill="#EEE12E" transform="translate(16,549)"/>
<path d="M0 0 C0.33 0 0.66 0 1 0 C1 1.65 1 3.3 1 5 C0.67 5 0.34 5 0 5 C0 3.35 0 1.7 0 0 Z " fill="#FFD42A" transform="translate(17,544)"/>
<path d="M0 0 C0.33 0 0.66 0 1 0 C1 1.65 1 3.3 1 5 C0.67 5 0.34 5 0 5 C0 3.35 0 1.7 0 0 Z " fill="#E1D42A" transform="translate(18,539)"/>
<path d="M0 0 C0.33 0 0.66 0 1 0 C1 1.65 1 3.3 1 5 C0.67 5 0.34 5 0 5 C0 3.35 0 1.7 0 0 Z " fill="#E1D42A" transform="translate(19,534)"/>
<path d="M0 0 C0.33 0 0.66 0 1 0 C1 1.65 1 3.3 1 5 C0.67 5 0.34 5 0 5 C0 3.35 0 1.7 0 0 Z " fill="#FFA12A" transform="translate(20,529)"/>
<path d="M0 0 C0.33 0 0.66 0 1 0 C1 1.65 1 3.3 1 5 C0.67 5 0.34 5 0 5 C0 3.35 0 1.7 0 0 Z " fill="#EEE12E" transform="translate(21,524)"/>
<path d="M0 0 C0.33 0 0.66 0 1 0 C1 1.65 1 3.3 1 5 C0.67 5 0.34 5 0 5 C0 3.35 0 1.7 0 0 Z " fill="#FFD42A" transform="translate(22,519)"/>
<path d="M0 0 C0.33 0 0.66 0 1 0 C1 1.65 1 3.3 1 5 C0.67 5 0.34 5 0 5 C0 3.35 0 1.7 0 0 Z " fill="#F2D42A" transform="translate(23,514)"/>
<path d="M0 0 C0.33 0 0.66 0 1 0 C1 1.65 1 3.3 1 5 C0.67 5 0.34 5 0 5 C0 3.35 0 1.7 0 0 Z " fill="#FFE12E" transform="translate(24,509)"/>
<path d="M0 0 C0.33 0 0.66 0 1 0 C1 1.65 1 3.3 1 5 C0.67 5 0.34 5 0 5 C0 3.35 0 1.7 0 0 Z " fill="#FFA12A" transform="translate(25,504)"/>
<path d="M0 0 C0.33 0 0.66 0 1 0 C1 1.65 1 3.3 1 5 C0.67 5 0.34 5 0 5 C0 3.35 0 1.7 0 0 Z " fill="#FFE12E" transform="translate(26,499)"/>
<path d="M0 0 C0.33 0 0.66 0 1 0 C1 1.65 1 3.3 1 5 C0.67 5 0.34 5 0 5 C0 3.35 0 1.7 0 0 Z " fill="#FFD42A" transform="translate(27,494)"/>
<path d="M0 0 C0.33 0 0.66 0 1 0 C1 1.65 1 3.3 1 5 C0.67 5 0.34 5 0 5 C0 3.35 0 1.7 0 0 Z " fill="#F2A12A" transform="translate(28,489)"/>
<path d="M0 0 C0.33 0 0.66 0 1 0 C1 1.65 1 3.3 1 5 C0.67 5 0.34 5 0 5 C0 3.35 0 1.7 0 0 Z " fill="#FFE12E" transform="translate(29,484)"/>
<path d="M0 0 C0.33 0 0.66 0 1 0 C1 1.65 1 3.3 1 5 C0.67 5 0.34 5 0 5 C0 3.35 0 1.7 0 0 Z " fill="#FFA12A" transform="translate(30,479)"/>
<path d="M0 0 C0.33 0 0.66 0 1 0 C1 1.65 1 3.3 1 5 C0.67 5 0.34 5 0 5 C0 3.35 0 1.7 0 0 Z " fill="#FFE12E" transform="translate(31,474)"/>
<path d="M0 0 C0.33 0 0.66 0 1 0 C1 1.65 1 3.3 1 5 C0.67 5 0.34 5 0 5 C0 3.35 0 1.7 0 0 Z " fill="#F2D42A" transform="translate(32,469)"/>
<path d="M0 0 C0.33 0 0.66 0 1 0 C1 1.65 1 3.3 1 5 C0.67 5 0.34 5 0 5 C0 3.35 0 1.7 0 0 Z " fill="#BFA12A" transform="translate(33,464)"/>
<path d="M0 0 C0.33 0 0.66 0 1 0 C1 1.65 1 3.3 1 5 C0.67 5 0.34 5 0 5 C0 3.35 0 1.7 0 0 Z " fill="#FFE12E" transform="translate(34,459)"/>
<path d="M0 0 C0.33 0 0.66 0 1 0 C1 1.65 1 3.3 1 5 C0.67 5 0.34 5 0 5 C0 3.35 0 1.7 0 0 Z " fill="#FFE12E" transform="translate(36,449)"/>
<path d="M0 0 C0.33 0 0.66 0 1 0 C1 1.65 1 3.3 1 5 C0.67 5 0.34 5 0 5 C0 3.35 0 1.7 0 0 Z " fill="#F2D42A" transform="translate(37,444)"/>
<path d="M0 0 C0.33 0 0.66 0 1 0 C1 1.65 1 3.3 1 5 C0.67 5 0.34 5 0 5 C0 3.35 0 1.7 0 0 Z " fill="#FFE12E" transform="translate(39,434)"/>
<path d="M0 0 C0.33 0 0.66 0 1 0 C1 1.65 1 3.3 1 5 C0.67 5 0.34 5 0 5 C0 3.35 0 1.7 0 0 Z " fill="#FFAE2E" transform="translate(41,424)"/>
<path d="M0 0 C0.33 0 0.66 0 1 0 C1 1.65 1 3.3 1 5 C0.67 5 0.34 5 0 5 C0 3.35 0 1.7 0 0 Z " fill="#F2D42A" transform="translate(42,419)"/>
<path d="M0 0 C0.33 0 0.66 0 1 0 C1 1.65 1 3.3 1 5 C0.67 5 0.34 5 0 5 C0 3.35 0 1.7 0 0 Z " fill="#FFE12E" transform="translate(44,409)"/>
<path d="M0 0 C0.33 0 0.66 0 1 0 C1 1.65 1 3.3 1 5 C0.67 5 0.34 5 0 5 C0 3.35 0 1.7 0 0 Z " fill="#CCAE2E" transform="translate(46,399)"/>
<path d="M0 0 C0.33 0 0.66 0 1 0 C1 1.65 1 3.3 1 5 C0.67 5 0.34 5 0 5 C0 3.35 0 1.7 0 0 Z " fill="#FFE12E" transform="translate(47,394)"/>
<path d="M0 0 C0.33 0 0.66 0 1 0 C1 1.65 1 3.3 1 5 C0.67 5 0.34 5 0 5 C0 3.35 0 1.7 0 0 Z " fill="#FFE12E" transform="translate(49,384)"/>
<path d="M0 0 C0.33 0 0.66 0 1 0 C1 1.65 1 3.3 1 5 C0.67 5 0.34 5 0 5 C0 3.35 0 1.7 0 0 Z " fill="#FFE12E" transform="translate(52,369)"/>
<path d="M0 0 C0.33 0 0.66 0 1 0 C1 1.65 1 3.3 1 5 C0.67 5 0.34 5 0 5 C0 3.35 0 1.7 0 0 Z " fill="#FFAE2E" transform="translate(54,359)"/>
<path d="M0 0 C0.33 0 0.66 0 1 0 C1 1.65 1 3.3 1 5 C0.67 5 0.34 5 0 5 C0 3.35 0 1.7 0 0 Z " fill="#FFE12E" transform="translate(57,344)"/>
<path d="M0 0 C0.33 0 0.66 0 1 0 C1 1.65 1 3.3 1 5 C0.67 5 0.34 5 0 5 C0 3.35 0 1.7 0 0 Z " fill="#CCAE2E" transform="translate(59,334)"/>
<path d="M0 0 C0.33 0 0.66 0 1 0 C1 1.65 1 3.3 1 5 C0.67 5 0.34 5 0 5 C0 3.35 0 1.7 0 0 Z " fill="#FFAE2E" transform="translate(62,319)"/>
<path d="M0 0 C0.33 0 0.66 0 1 0 C1 1.65 1 3.3 1 5 C0.67 5 0.34 5 0 5 C0 3.35 0 1.7 0 0 Z " fill="#CCAE2E" transform="translate(67,294)"/>
<path d="M0 0 C0.33 0 0.66 0 1 0 C1 1.65 1 3.3 1 5 C0.67 5 0.34 5 0 5 C0 3.35 0 1.7 0 0 Z " fill="#CCAE2E" transform="translate(85,203)"/>
<path d="M0 0 C0.33 0 0.66 0 1 0 C1 1.65 1 3.3 1 5 C0.67 5 0.34 5 0 5 C0 3.35 0 1.7 0 0 Z " fill="#CCAE2E" transform="translate(90,178)"/>
<path d="M0 0 C0.33 0 0.66 0 1 0 C1 1.65 1 3.3 1 5 C0.67 5 0.34 5 0 5 C0 3.35 0 1.7 0 0 Z " fill="#FFAE2E" transform="translate(95,153)"/>
<path d="M0 0 C0.33 0 0.66 0 1 0 C1 1.65 1 3.3 1 5 C0.67 5 0.34 5 0 5 C0 3.35 0 1.7 0 0 Z " fill="#CCAE2E" transform="translate(98,138)"/>
<path d="M0 0 C0.33 0 0.66 0 1 0 C1 1.65 1 3.3 1 5 C0.67 5 0.34 5 0 5 C0 3.35 0 1.7 0 0 Z " fill="#FFAE2E" transform="translate(100,128)"/>
<path d="M0 0 C0.33 0 0.66 0 1 0 C1 1.65 1 3.3 1 5 C0.67 5 0.34 5 0 5 C0 3.35 0 1.7 0 0 Z " fill="#CCAE2E" transform="translate(103,113)"/>
<path d="M0 0 C0.33 0 0.66 0 1 0 C1 1.65 1 3.3 1 5 C0.67 5 0.34 5 0 5 C0 3.35 0 1.7 0 0 Z " fill="#FFAE2E" transform="translate(105,103)"/>
<path d="M0 0 C0.33 0 0.66 0 1 0 C1 1.65 1 3.3 1 5 C0.67 5 0.34 5 0 5 C0 3.35 0 1.7 0 0 Z " fill="#FFAE2E" transform="translate(108,88)"/>
<path d="M0 0 C0.33 0 0.66 0 1 0 C1 1.65 1 3.3 1 5 C0.67 5 0.34 5 0 5 C0 3.35 0 1.7 0 0 Z " fill="#E5832E" transform="translate(110,78)"/>
<path d="M0 0 C0.33 0 0.66 0 1 0 C1 1.65 1 3.3 1 5 C0.67 5 0.34 5 0 5 C0 3.35 0 1.7 0 0 Z " fill="#CCAE2E" transform="translate(111,73)"/>
<path d="M0 0 C4 1 4 1 4 1 Z " fill="#FFD944" transform="translate(102,735)"/>
<path d="M0 0 C4 1 4 1 4 1 Z " fill="#FFBF1F" transform="translate(61,735)"/>
<path d="M0 0 C1 4 1 4 1 4 Z " fill="#FF9F3F" transform="translate(0,672)"/>
<path d="M0 0 C1 4 1 4 1 4 Z " fill="#FFA944" transform="translate(735,462)"/>
<path d="M0 0 C1 4 1 4 1 4 Z " fill="#EFC934" transform="translate(35,454)"/>
<path d="M0 0 C1 4 1 4 1 4 Z " fill="#EFC934" transform="translate(38,439)"/>
<path d="M0 0 C1 4 1 4 1 4 Z " fill="#FFC934" transform="translate(40,429)"/>
<path d="M0 0 C1 4 1 4 1 4 Z " fill="#FF8A25" transform="translate(735,420)"/>
<path d="M0 0 C1 4 1 4 1 4 Z " fill="#EFC934" transform="translate(43,414)"/>
<path d="M0 0 C1 4 1 4 1 4 Z " fill="#EFC934" transform="translate(45,404)"/>
<path d="M0 0 C1 4 1 4 1 4 Z " fill="#FFC934" transform="translate(48,389)"/>
<path d="M0 0 C0.99 0.495 0.99 0.495 2 1 C1.67 1.66 1.34 2.32 1 3 C0.67 2.01 0.34 1.02 0 0 Z " fill="#E97F2A" transform="translate(717,387)"/>
<path d="M0 0 C1 4 1 4 1 4 Z " fill="#EFC934" transform="translate(50,379)"/>
<path d="M0 0 C1 4 1 4 1 4 Z " fill="#FFD93A" transform="translate(51,374)"/>
<path d="M0 0 C1 4 1 4 1 4 Z " fill="#EFC934" transform="translate(53,364)"/>
<path d="M0 0 C1 4 1 4 1 4 Z " fill="#EFC934" transform="translate(55,354)"/>
<path d="M0 0 C1 4 1 4 1 4 Z " fill="#FFD93A" transform="translate(56,349)"/>
<path d="M0 0 C1 4 1 4 1 4 Z " fill="#EFC934" transform="translate(58,339)"/>
<path d="M0 0 C1 4 1 4 1 4 Z " fill="#EFC934" transform="translate(60,329)"/>
<path d="M0 0 C1 4 1 4 1 4 Z " fill="#FFD93A" transform="translate(61,324)"/>
<path d="M0 0 C1 4 1 4 1 4 Z " fill="#EFC934" transform="translate(63,314)"/>
<path d="M0 0 C1 4 1 4 1 4 Z " fill="#FFD93A" transform="translate(64,309)"/>
<path d="M0 0 C1 4 1 4 1 4 Z " fill="#EFC934" transform="translate(65,304)"/>
<path d="M0 0 C1 4 1 4 1 4 Z " fill="#FFD93A" transform="translate(66,299)"/>
<path d="M0 0 C1 4 1 4 1 4 Z " fill="#EFC934" transform="translate(68,289)"/>
<path d="M0 0 C1 4 1 4 1 4 Z " fill="#FFD93A" transform="translate(69,284)"/>
<path d="M0 0 C1 4 1 4 1 4 Z " fill="#FFD93A" transform="translate(70,279)"/>
<path d="M0 0 C1 4 1 4 1 4 Z " fill="#FFD93A" transform="translate(71,274)"/>
<path d="M0 0 C1 4 1 4 1 4 Z " fill="#FFD93A" transform="translate(72,269)"/>
<path d="M0 0 C1 4 1 4 1 4 Z " fill="#EFC934" transform="translate(73,264)"/>
<path d="M0 0 C1 4 1 4 1 4 Z " fill="#FFD93A" transform="translate(74,259)"/>
<path d="M0 0 C1 4 1 4 1 4 Z " fill="#FFD93A" transform="translate(75,254)"/>
<path d="M0 0 C1 4 1 4 1 4 Z " fill="#FFD93A" transform="translate(76,249)"/>
<path d="M0 0 C1 4 1 4 1 4 Z " fill="#FFD93A" transform="translate(77,244)"/>
<path d="M0 0 C1 4 1 4 1 4 Z " fill="#FFD93A" transform="translate(78,239)"/>
<path d="M0 0 C1 4 1 4 1 4 Z " fill="#DFB93A" transform="translate(79,234)"/>
<path d="M0 0 C1 4 1 4 1 4 Z " fill="#FFD93A" transform="translate(80,229)"/>
<path d="M0 0 C1 4 1 4 1 4 Z " fill="#FFD93A" transform="translate(81,224)"/>
<path d="M0 0 C1 4 1 4 1 4 Z " fill="#FFD93A" transform="translate(82,219)"/>
<path d="M0 0 C1 4 1 4 1 4 Z " fill="#FFD93A" transform="translate(83,214)"/>
<path d="M0 0 C1 4 1 4 1 4 Z " fill="#DFB93A" transform="translate(84,209)"/>
<path d="M0 0 C1 4 1 4 1 4 Z " fill="#FFD93A" transform="translate(86,199)"/>
<path d="M0 0 C1 4 1 4 1 4 Z " fill="#FFD93A" transform="translate(87,194)"/>
<path d="M0 0 C1 4 1 4 1 4 Z " fill="#FFD93A" transform="translate(88,189)"/>
<path d="M0 0 C1 4 1 4 1 4 Z " fill="#DFB93A" transform="translate(89,184)"/>
<path d="M0 0 C1 4 1 4 1 4 Z " fill="#FFD93A" transform="translate(91,174)"/>
<path d="M0 0 C1 4 1 4 1 4 Z " fill="#DFB93A" transform="translate(92,169)"/>
<path d="M0 0 C1 4 1 4 1 4 Z " fill="#FFD93A" transform="translate(93,164)"/>
<path d="M0 0 C1 4 1 4 1 4 Z " fill="#DFB93A" transform="translate(94,159)"/>
<path d="M0 0 C1 4 1 4 1 4 Z " fill="#FFD93A" transform="translate(96,149)"/>
<path d="M0 0 C1 4 1 4 1 4 Z " fill="#DFB93A" transform="translate(97,144)"/>
<path d="M0 0 C1 4 1 4 1 4 Z " fill="#FFB93A" transform="translate(99,134)"/>
<path d="M0 0 C1 4 1 4 1 4 Z " fill="#FFD93A" transform="translate(101,124)"/>
<path d="M0 0 C1 4 1 4 1 4 Z " fill="#FFA43A" transform="translate(102,119)"/>
<path d="M0 0 C1 4 1 4 1 4 Z " fill="#FFB93A" transform="translate(104,109)"/>
<path d="M0 0 C1 4 1 4 1 4 Z " fill="#FFD93A" transform="translate(106,99)"/>
<path d="M0 0 C1 4 1 4 1 4 Z " fill="#FFA43A" transform="translate(107,94)"/>
<path d="M0 0 C1 4 1 4 1 4 Z " fill="#FFB93A" transform="translate(109,84)"/>
<path d="M0 0 C1 4 1 4 1 4 Z " fill="#FFA43A" transform="translate(112,69)"/>
<path d="M0 0 C1 4 1 4 1 4 Z " fill="#FFD93A" transform="translate(113,64)"/>
<path d="M0 0 C1 4 1 4 1 4 Z " fill="#DFB925" transform="translate(114,60)"/>
<path d="M0 0 C4 1 4 1 4 1 Z " fill="#FFEF25" transform="translate(216,0)"/>
<path d="M0 0 C4 1 4 1 4 1 Z " fill="#FFDF1F" transform="translate(175,0)"/>
<path d="M0 0 C3 1 3 1 3 1 Z " fill="#FFA231" transform="translate(106,734)"/>
<path d="M0 0 C3 1 3 1 3 1 Z " fill="#FFBF69" transform="translate(58,734)"/>
<path d="M0 0 C3 1 3 1 3 1 Z " fill="#FFBF15" transform="translate(109,733)"/>
<path d="M0 0 C3 1 3 1 3 1 Z " fill="#D4BF15" transform="translate(52,732)"/>
<path d="M0 0 C3 1 3 1 3 1 Z " fill="#FFBF3F" transform="translate(120,729)"/>
<path d="M0 0 C3 1 3 1 3 1 Z " fill="#D4BF15" transform="translate(128,726)"/>
<path d="M0 0 C3 1 3 1 3 1 Z " fill="#FFE915" transform="translate(139,722)"/>
<path d="M0 0 C3 1 3 1 3 1 Z " fill="#FF7138" transform="translate(142,721)"/>
<path d="M0 0 C3 1 3 1 3 1 Z " fill="#FFBF15" transform="translate(158,715)"/>
<path d="M0 0 C3 1 3 1 3 1 Z " fill="#E9CD31" transform="translate(161,714)"/>
<path d="M0 0 C3 1 3 1 3 1 Z " fill="#FF9415" transform="translate(177,708)"/>
<path d="M0 0 C3 1 3 1 3 1 Z " fill="#FFE93F" transform="translate(188,704)"/>
<path d="M0 0 C3 1 3 1 3 1 Z " fill="#FFE915" transform="translate(207,697)"/>
<path d="M0 0 C3 1 3 1 3 1 Z " fill="#FFC638" transform="translate(210,696)"/>
<path d="M0 0 C3 1 3 1 3 1 Z " fill="#FFBF15" transform="translate(226,690)"/>
<path d="M0 0 C3 1 3 1 3 1 Z " fill="#E96331" transform="translate(229,689)"/>
<path d="" fill="#FFAA1C" transform="translate(0,0)"/>
<path d="M0 0 C3 1 3 1 3 1 Z " fill="#D49415" transform="translate(245,683)"/>
<path d="" fill="#FF8D38" transform="translate(0,0)"/>
<path d="M0 0 C3 1 3 1 3 1 Z " fill="#FFBF3F" transform="translate(256,679)"/>
<path d="" fill="#E9CD31" transform="translate(0,0)"/>
<path d="M0 0 C3 1 3 1 3 1 Z " fill="#FFE238" transform="translate(278,671)"/>
<path d="M0 0 C3 1 3 1 3 1 Z " fill="#FFBF15" transform="translate(283,669)"/>
<path d="M0 0 C3 1 3 1 3 1 Z " fill="#FFBF15" transform="translate(294,665)"/>
<path d="M0 0 C3 1 3 1 3 1 Z " fill="#FFBF15" transform="translate(313,658)"/>
<path d="M0 0 C3 1 3 1 3 1 Z " fill="#D4943F" transform="translate(332,651)"/>
<path d="M0 0 C3 1 3 1 3 1 Z " fill="#FFBF15" transform="translate(351,644)"/>
<path d="M0 0 C3 1 3 1 3 1 Z " fill="#D4BF3F" transform="translate(362,640)"/>
<path d="M0 0 C3 1 3 1 3 1 Z " fill="#FFE915" transform="translate(370,637)"/>
<path d="M0 0 C3 1 3 1 3 1 Z " fill="#FFBF15" transform="translate(381,633)"/>
<path d="M0 0 C3 1 3 1 3 1 Z " fill="#FFBF3F" transform="translate(400,626)"/>
<path d="M0 0 C3 1 3 1 3 1 Z " fill="#FFBF15" transform="translate(419,619)"/>
<path d="M0 0 C3 1 3 1 3 1 Z " fill="#FFBF3F" transform="translate(430,615)"/>
<path d="M0 0 C3 1 3 1 3 1 Z " fill="#FFE915" transform="translate(438,612)"/>
<path d="M0 0 C3 1 3 1 3 1 Z " fill="#FFA93F" transform="translate(449,608)"/>
<path d="M0 0 C3 1 3 1 3 1 Z " fill="#FFBF3F" transform="translate(468,601)"/>
<path d="M0 0 C3 1 3 1 3 1 Z " fill="#FFA915" transform="translate(487,594)"/>
<path d="M0 0 C3 1 3 1 3 1 Z " fill="#FFA93F" transform="translate(498,590)"/>
<path d="M0 0 C3 1 3 1 3 1 Z " fill="#FFE915" transform="translate(506,587)"/>
<path d="M0 0 C3 1 3 1 3 1 Z " fill="#FFA93F" transform="translate(517,583)"/>
<path d="M0 0 C3 1 3 1 3 1 Z " fill="#FFA93F" transform="translate(536,576)"/>
<path d="M0 0 C3 1 3 1 3 1 Z " fill="#FFA915" transform="translate(555,569)"/>
<path d="M0 0 C3 1 3 1 3 1 Z " fill="#FF4631" transform="translate(566,565)"/>
<path d="M0 0 C3 1 3 1 3 1 Z " fill="#D4A915" transform="translate(574,562)"/>
<path d="M0 0 C3 1 3 1 3 1 Z " fill="#FFA93F" transform="translate(585,558)"/>
<path d="M0 0 C3 1 3 1 3 1 Z " fill="#FFA915" transform="translate(593,555)"/>
<path d="M0 0 C3 1 3 1 3 1 Z " fill="#FF4631" transform="translate(615,547)"/>
<path d="M0 0 C3 1 3 1 3 1 Z " fill="#FF4631" transform="translate(634,540)"/>
<path d="M0 0 C3 1 3 1 3 1 Z " fill="#FFA915" transform="translate(642,537)"/>
<path d="M0 0 C3 1 3 1 3 1 Z " fill="#FFA93F" transform="translate(653,533)"/>
<path d="M0 0 C3 1 3 1 3 1 Z " fill="#FF7138" transform="translate(656,532)"/>
<path d="M0 0 C3 1 3 1 3 1 Z " fill="#FFA915" transform="translate(661,530)"/>
<path d="M0 0 C3 1 3 1 3 1 Z " fill="#FFA915" transform="translate(680,523)"/>
<path d="" fill="#FF6346" transform="translate(0,0)"/>
<path d="" fill="#FF7F15" transform="translate(0,0)"/>
<path d="" fill="#FF7131" transform="translate(0,0)"/>
<path d="" fill="#FF7131" transform="translate(0,0)"/>
<path d="" fill="#FFA915" transform="translate(0,0)"/>
<path d="" fill="#FF631C" transform="translate(0,0)"/>
<path d="" fill="#E2A231" transform="translate(0,0)"/>
<path d="" fill="#FFD41C" transform="translate(0,0)"/>
<path d="" fill="#FFE238" transform="translate(0,0)"/>
<path d="M0 0 C3 1 3 1 3 1 Z " fill="#FFE93F" transform="translate(223,2)"/>
<path d="M0 0 C3 1 3 1 3 1 Z " fill="#FFE969" transform="translate(220,1)"/>
<path d="M0 0 C3 1 3 1 3 1 Z " fill="#FFCD86" transform="translate(172,1)"/>
<path d="M0 0 C2 1 2 1 2 1 Z " fill="#FFB44A" transform="translate(115,731)"/>
<path d="M0 0 C2 1 2 1 2 1 Z " fill="#FFD46A" transform="translate(50,731)"/>
<path d="M0 0 C2 1 2 1 2 1 Z " fill="#FFD46A" transform="translate(48,730)"/>
<path d="M0 0 C2 1 2 1 2 1 Z " fill="#FFFF2A" transform="translate(44,728)"/>
<path d="M0 0 C2 1 2 1 2 1 Z " fill="#FFD455" transform="translate(134,724)"/>
<path d="M0 0 C2 1 2 1 2 1 Z " fill="#FFB44A" transform="translate(145,720)"/>
<path d="M0 0 C2 1 2 1 2 1 Z " fill="#DFB44A" transform="translate(153,717)"/>
<path d="M0 0 C2 1 2 1 2 1 Z " fill="#B4B44A" transform="translate(164,713)"/>
<path d="M0 0 C2 1 2 1 2 1 Z " fill="#FFFF55" transform="translate(172,710)"/>
<path d="M0 0 C2 1 2 1 2 1 Z " fill="#FFB44A" transform="translate(183,706)"/>
<path d="M0 0 C2 1 2 1 2 1 Z " fill="#FFD455" transform="translate(202,699)"/>
<path d="M0 0 C2 1 2 1 2 1 Z " fill="#FFDF5F" transform="translate(213,695)"/>
<path d="" fill="#FF942A" transform="translate(0,0)"/>
<path d="" fill="#FFD42A" transform="translate(0,0)"/>
<path d="M0 0 C2 1 2 1 2 1 Z " fill="#FFB44A" transform="translate(221,692)"/>
<path d="" fill="#FFFF2A" transform="translate(0,0)"/>
<path d="M0 0 C2 1 2 1 2 1 Z " fill="#D4B44A" transform="translate(232,688)"/>
<path d="" fill="#FFAA55" transform="translate(0,0)"/>
<path d="" fill="#FF9F1F" transform="translate(0,0)"/>
<path d="M0 0 C2 1 2 1 2 1 Z " fill="#B4B44A" transform="translate(251,681)"/>
<path d="M0 0 C2 1 2 1 2 1 Z " fill="#FFD455" transform="translate(270,674)"/>
<path d="M0 0 C2 1 2 1 2 1 Z " fill="#FFDF5F" transform="translate(281,670)"/>
<path d="M0 0 C2 1 2 1 2 1 Z " fill="#FF944A" transform="translate(289,667)"/>
<path d="M0 0 C2 1 2 1 2 1 Z " fill="#FFDF5F" transform="translate(319,656)"/>
<path d="M0 0 C2 1 2 1 2 1 Z " fill="#FFAA55" transform="translate(327,653)"/>
<path d="M0 0 C2 1 2 1 2 1 Z " fill="#FFB44A" transform="translate(338,649)"/>
<path d="M0 0 C2 1 2 1 2 1 Z " fill="#FFD455" transform="translate(357,642)"/>
<path d="M0 0 C2 1 2 1 2 1 Z " fill="#FFDF5F" transform="translate(387,631)"/>
<path d="M0 0 C2 1 2 1 2 1 Z " fill="#DF944A" transform="translate(395,628)"/>
<path d="M0 0 C2 1 2 1 2 1 Z " fill="#FFB44A" transform="translate(406,624)"/>
<path d="M0 0 C2 1 2 1 2 1 Z " fill="#FFAA55" transform="translate(414,621)"/>
<path d="M0 0 C2 1 2 1 2 1 Z " fill="#FFAA55" transform="translate(425,617)"/>
<path d="M0 0 C2 1 2 1 2 1 Z " fill="#DF944A" transform="translate(463,603)"/>
<path d="M0 0 C2 1 2 1 2 1 Z " fill="#FF944A" transform="translate(474,599)"/>
<path d="M0 0 C2 1 2 1 2 1 Z " fill="#FFAA55" transform="translate(482,596)"/>
<path d="M0 0 C2 1 2 1 2 1 Z " fill="#FFAA55" transform="translate(493,592)"/>
<path d="M0 0 C2 1 2 1 2 1 Z " fill="#FF7F5F" transform="translate(523,581)"/>
<path d="M0 0 C2 1 2 1 2 1 Z " fill="#FF944A" transform="translate(531,578)"/>
<path d="M0 0 C2 1 2 1 2 1 Z " fill="#D4944A" transform="translate(542,574)"/>
<path d="M0 0 C2 1 2 1 2 1 Z " fill="#FF944A" transform="translate(550,571)"/>
<path d="M0 0 C2 1 2 1 2 1 Z " fill="#FF6A4A" transform="translate(580,560)"/>
<path d="M0 0 C2 1 2 1 2 1 Z " fill="#FF7F5F" transform="translate(591,556)"/>
<path d="M0 0 C2 1 2 1 2 1 Z " fill="#FF944A" transform="translate(599,553)"/>
<path d="M0 0 C2 1 2 1 2 1 Z " fill="#FF7F5F" transform="translate(610,549)"/>
<path d="M0 0 C2 1 2 1 2 1 Z " fill="#FF7F5F" transform="translate(659,531)"/>
<path d="M0 0 C2 1 2 1 2 1 Z " fill="#FF944A" transform="translate(667,528)"/>
<path d="M0 0 C2 1 2 1 2 1 Z " fill="#FF7F1F" transform="translate(678,524)"/>
<path d="M0 0 C2 1 2 1 2 1 Z " fill="#FF7F55" transform="translate(683,522)"/>
<path d="M0 0 C2 1 2 1 2 1 Z " fill="#FF7F55" transform="translate(695,516)"/>
<path d="" fill="#FFBF00" transform="translate(0,0)"/>
<path d="" fill="#FFBF3F" transform="translate(0,0)"/>
<path d="" fill="#FF7F00" transform="translate(0,0)"/>
<path d="" fill="#FFD42A" transform="translate(0,0)"/>
<path d="" fill="#FF7F3F" transform="translate(0,0)"/>
<path d="" fill="#FF2A2A" transform="translate(0,0)"/>
<path d="" fill="#FFAA2A" transform="translate(0,0)"/>
<path d="" fill="#FF7F7F" transform="translate(0,0)"/>
<path d="" fill="#FF942A" transform="translate(0,0)"/>
<path d="" fill="#FF942A" transform="translate(0,0)"/>
<path d="" fill="#FF6A6A" transform="translate(0,0)"/>
<path d="" fill="#FF7F7F" transform="translate(0,0)"/>
<path d="" fill="#FF6A2A" transform="translate(0,0)"/>
<path d="" fill="#FFD42A" transform="translate(0,0)"/>
<path d="" fill="#FF552A" transform="translate(0,0)"/>
<path d="" fill="#FF7F3F" transform="translate(0,0)"/>
<path d="" fill="#FFDF1F" transform="translate(0,0)"/>
<path d="" fill="#FFFF2A" transform="translate(0,0)"/>
<path d="" fill="#FFFF6A" transform="translate(0,0)"/>
<path d="" fill="#FF942A" transform="translate(0,0)"/>
<path d="" fill="#FFFF2A" transform="translate(0,0)"/>
<path d="" fill="#FFFF3F" transform="translate(0,0)"/>
<path d="" fill="#FFDF1F" transform="translate(0,0)"/>
<path d="" fill="#FFFF00" transform="translate(0,0)"/>
<path d="M0 0 C2 1 2 1 2 1 Z " fill="#FFD46A" transform="translate(235,7)"/>
<path d="" fill="#FFFF55" transform="translate(0,0)"/>
<path d="" fill="#FFBF3F" transform="translate(0,0)"/>
<path d="" fill="#FFBF3F" transform="translate(0,0)"/>
<path d="" fill="#FFBF3F" transform="translate(0,0)"/>
<path d="" fill="#FFBF3F" transform="translate(0,0)"/>
<path d="" fill="#FFBF3F" transform="translate(0,0)"/>
<path d="" fill="#FFBF3F" transform="translate(0,0)"/>
<path d="" fill="#FFBF3F" transform="translate(0,0)"/>
<path d="" fill="#FFBF3F" transform="translate(0,0)"/>
<path d="" fill="#FFBF3F" transform="translate(0,0)"/>
<path d="" fill="#FFBF3F" transform="translate(0,0)"/>
<path d="" fill="#FFAA55" transform="translate(0,0)"/>
<path d="" fill="#FFFF55" transform="translate(0,0)"/>
<path d="" fill="#BFBF3F" transform="translate(0,0)"/>
<path d="" fill="#FFFF7F" transform="translate(0,0)"/>
<path d="" fill="#FFFF55" transform="translate(0,0)"/>
<path d="" fill="#FFFF55" transform="translate(0,0)"/>
<path d="" fill="#FFAA55" transform="translate(0,0)"/>
<path d="" fill="#FFAA55" transform="translate(0,0)"/>
<path d="" fill="#FF7F3F" transform="translate(0,0)"/>
<path d="" fill="#FF7F3F" transform="translate(0,0)"/>
<path d="" fill="#FF7F3F" transform="translate(0,0)"/>
<path d="" fill="#FF7F3F" transform="translate(0,0)"/>
<path d="" fill="#FF7F3F" transform="translate(0,0)"/>
<path d="" fill="#FF6633" transform="translate(0,0)"/>
<path d="" fill="#FF7F3F" transform="translate(0,0)"/>
<path d="" fill="#FF7F3F" transform="translate(0,0)"/>
<path d="" fill="#FF7F3F" transform="translate(0,0)"/>
<path d="" fill="#FFAA55" transform="translate(0,0)"/>
<path d="" fill="#AA5555" transform="translate(0,0)"/>
<path d="" fill="#FF7F3F" transform="translate(0,0)"/>
<path d="" fill="#FFAA55" transform="translate(0,0)"/>
<path d="" fill="#FFAA55" transform="translate(0,0)"/>
<path d="" fill="#FFAA55" transform="translate(0,0)"/>
<path d="" fill="#FFAA55" transform="translate(0,0)"/>
<path d="" fill="#FF7F7F" transform="translate(0,0)"/>
<path d="" fill="#FF5555" transform="translate(0,0)"/>
<path d="" fill="#FF7F3F" transform="translate(0,0)"/>
<path d="" fill="#FFAA55" transform="translate(0,0)"/>
<path d="" fill="#FF7F3F" transform="translate(0,0)"/>
<path d="" fill="#FF7F00" transform="translate(0,0)"/>
<path d="" fill="#FF7F7F" transform="translate(0,0)"/>
<path d="" fill="#FFAA55" transform="translate(0,0)"/>
<path d="" fill="#FFAA55" transform="translate(0,0)"/>
<path d="" fill="#FF5555" transform="translate(0,0)"/>
<path d="" fill="#AAAA55" transform="translate(0,0)"/>
<path d="" fill="#FF7F3F" transform="translate(0,0)"/>
<path d="" fill="#FF7F3F" transform="translate(0,0)"/>
<path d="" fill="#FF7F3F" transform="translate(0,0)"/>
<path d="" fill="#FF7F3F" transform="translate(0,0)"/>
<path d="" fill="#FFAA55" transform="translate(0,0)"/>
<path d="" fill="#FF7F3F" transform="translate(0,0)"/>
<path d="" fill="#FFAA55" transform="translate(0,0)"/>
<path d="" fill="#FF7F3F" transform="translate(0,0)"/>
<path d="" fill="#FF7F3F" transform="translate(0,0)"/>
<path d="" fill="#FF7F3F" transform="translate(0,0)"/>
<path d="" fill="#FF7F3F" transform="translate(0,0)"/>
<path d="" fill="#FFAA55" transform="translate(0,0)"/>
<path d="" fill="#FF7F3F" transform="translate(0,0)"/>
<path d="" fill="#FF7F3F" transform="translate(0,0)"/>
<path d="" fill="#FF7F3F" transform="translate(0,0)"/>
<path d="" fill="#BF7F3F" transform="translate(0,0)"/>
<path d="" fill="#FF7F3F" transform="translate(0,0)"/>
<path d="" fill="#FFAA55" transform="translate(0,0)"/>
<path d="" fill="#FF7F3F" transform="translate(0,0)"/>
<path d="" fill="#FF7F3F" transform="translate(0,0)"/>
<path d="" fill="#FF7F3F" transform="translate(0,0)"/>
<path d="" fill="#FF7F3F" transform="translate(0,0)"/>
<path d="" fill="#FFAA55" transform="translate(0,0)"/>
<path d="" fill="#FF7F3F" transform="translate(0,0)"/>
<path d="" fill="#BF7F3F" transform="translate(0,0)"/>
<path d="" fill="#FF7F3F" transform="translate(0,0)"/>
<path d="" fill="#FF7F3F" transform="translate(0,0)"/>
<path d="" fill="#FFAA55" transform="translate(0,0)"/>
<path d="" fill="#FFBF3F" transform="translate(0,0)"/>
<path d="" fill="#FFAA55" transform="translate(0,0)"/>
<path d="" fill="#FF7F3F" transform="translate(0,0)"/>
<path d="" fill="#FFAA55" transform="translate(0,0)"/>
<path d="" fill="#FFAA55" transform="translate(0,0)"/>
<path d="" fill="#FF7F3F" transform="translate(0,0)"/>
<path d="" fill="#FF7F3F" transform="translate(0,0)"/>
<path d="" fill="#FF7F3F" transform="translate(0,0)"/>
<path d="" fill="#FF7F3F" transform="translate(0,0)"/>
<path d="" fill="#FFAA55" transform="translate(0,0)"/>
<path d="" fill="#FFBF3F" transform="translate(0,0)"/>
<path d="" fill="#FFAA55" transform="translate(0,0)"/>
<path d="" fill="#FFBF3F" transform="translate(0,0)"/>
<path d="" fill="#BF7F3F" transform="translate(0,0)"/>
<path d="" fill="#FFAA55" transform="translate(0,0)"/>
<path d="" fill="#FF7F3F" transform="translate(0,0)"/>
<path d="" fill="#FFAA55" transform="translate(0,0)"/>
<path d="" fill="#FF7F3F" transform="translate(0,0)"/>
<path d="" fill="#FFBF3F" transform="translate(0,0)"/>
<path d="" fill="#FF7F3F" transform="translate(0,0)"/>
<path d="" fill="#FFBF3F" transform="translate(0,0)"/>
<path d="" fill="#FFAA55" transform="translate(0,0)"/>
<path d="" fill="#FFBF3F" transform="translate(0,0)"/>
<path d="" fill="#FF7F3F" transform="translate(0,0)"/>
<path d="" fill="#FFAA55" transform="translate(0,0)"/>
<path d="" fill="#FFAA55" transform="translate(0,0)"/>
<path d="" fill="#FFBF3F" transform="translate(0,0)"/>
<path d="" fill="#FFBF3F" transform="translate(0,0)"/>
<path d="" fill="#FFBF3F" transform="translate(0,0)"/>
<path d="" fill="#FFBF3F" transform="translate(0,0)"/>
<path d="" fill="#FFBF3F" transform="translate(0,0)"/>
<path d="" fill="#FFAA55" transform="translate(0,0)"/>
<path d="" fill="#FFBF3F" transform="translate(0,0)"/>
<path d="" fill="#FF7F3F" transform="translate(0,0)"/>
<path d="" fill="#FFAA55" transform="translate(0,0)"/>
<path d="" fill="#FFAA55" transform="translate(0,0)"/>
<path d="" fill="#FFBF3F" transform="translate(0,0)"/>
<path d="" fill="#FFBF3F" transform="translate(0,0)"/>
<path d="" fill="#FFBF3F" transform="translate(0,0)"/>
<path d="" fill="#FFFF55" transform="translate(0,0)"/>
<path d="" fill="#FFBF3F" transform="translate(0,0)"/>
<path d="" fill="#FFAA55" transform="translate(0,0)"/>
<path d="" fill="#FFBF3F" transform="translate(0,0)"/>
<path d="" fill="#FFAA55" transform="translate(0,0)"/>
<path d="" fill="#FFBF3F" transform="translate(0,0)"/>
<path d="" fill="#FFAA55" transform="translate(0,0)"/>
<path d="" fill="#FFAA55" transform="translate(0,0)"/>
<path d="" fill="#FFBF3F" transform="translate(0,0)"/>
<path d="" fill="#FFAA55" transform="translate(0,0)"/>
<path d="" fill="#FFBF3F" transform="translate(0,0)"/>
<path d="" fill="#BFBF3F" transform="translate(0,0)"/>
<path d="" fill="#BFBF3F" transform="translate(0,0)"/>
<path d="" fill="#FFBF3F" transform="translate(0,0)"/>
<path d="" fill="#FFAA55" transform="translate(0,0)"/>
<path d="" fill="#FF7F3F" transform="translate(0,0)"/>
<path d="" fill="#FF7F3F" transform="translate(0,0)"/>
<path d="" fill="#FFFF55" transform="translate(0,0)"/>
<path d="" fill="#FFBF3F" transform="translate(0,0)"/>
<path d="" fill="#FFAA55" transform="translate(0,0)"/>
<path d="" fill="#FFBF3F" transform="translate(0,0)"/>
<path d="" fill="#FFBF3F" transform="translate(0,0)"/>
<path d="" fill="#BFBF3F" transform="translate(0,0)"/>
<path d="" fill="#FFBF3F" transform="translate(0,0)"/>
<path d="" fill="#FFAA55" transform="translate(0,0)"/>
<path d="" fill="#FFBF3F" transform="translate(0,0)"/>
<path d="" fill="#FFBF3F" transform="translate(0,0)"/>
<path d="" fill="#FFFF55" transform="translate(0,0)"/>
<path d="" fill="#FFBF3F" transform="translate(0,0)"/>
<path d="" fill="#FFAA55" transform="translate(0,0)"/>
<path d="" fill="#FFBF3F" transform="translate(0,0)"/>
<path d="" fill="#FFBF3F" transform="translate(0,0)"/>
<path d="" fill="#FFFF55" transform="translate(0,0)"/>
<path d="" fill="#FFAA55" transform="translate(0,0)"/>
<path d="" fill="#FFBF3F" transform="translate(0,0)"/>
<path d="" fill="#FFBF3F" transform="translate(0,0)"/>
<path d="" fill="#FFFF55" transform="translate(0,0)"/>
<path d="" fill="#FFBF3F" transform="translate(0,0)"/>
<path d="" fill="#FFFF55" transform="translate(0,0)"/>
<path d="" fill="#FFBF3F" transform="translate(0,0)"/>
<path d="" fill="#FFFF55" transform="translate(0,0)"/>
<path d="" fill="#FFBF3F" transform="translate(0,0)"/>
<path d="" fill="#FFBF3F" transform="translate(0,0)"/>
<path d="" fill="#FFFF55" transform="translate(0,0)"/>
<path d="" fill="#FFBF3F" transform="translate(0,0)"/>
<path d="" fill="#FFBF3F" transform="translate(0,0)"/>
<path d="" fill="#BFBF3F" transform="translate(0,0)"/>
<path d="" fill="#FFBF3F" transform="translate(0,0)"/>
<path d="" fill="#FFFF55" transform="translate(0,0)"/>
<path d="" fill="#FFFF55" transform="translate(0,0)"/>
<path d="" fill="#FFBF3F" transform="translate(0,0)"/>
<path d="" fill="#FFFF55" transform="translate(0,0)"/>
<path d="" fill="#FFFF7F" transform="translate(0,0)"/>
<path d="" fill="#FFBF3F" transform="translate(0,0)"/>
<path d="" fill="#FFBF3F" transform="translate(0,0)"/>
<path d="" fill="#FFAA55" transform="translate(0,0)"/>
<path d="" fill="#FFBF3F" transform="translate(0,0)"/>
<path d="" fill="#FFBF3F" transform="translate(0,0)"/>
<path d="" fill="#FFBF3F" transform="translate(0,0)"/>
<path d="" fill="#FFFF55" transform="translate(0,0)"/>
<path d="" fill="#FFFF7F" transform="translate(0,0)"/>
<path d="" fill="#FFFF7F" transform="translate(0,0)"/>
<path d="" fill="#FFFF7F" transform="translate(0,0)"/>
<path d="" fill="#FFAA55" transform="translate(0,0)"/>
<path d="" fill="#FFFF7F" transform="translate(0,0)"/>
<path d="" fill="#FFFF7F" transform="translate(0,0)"/>
<path d="" fill="#FFBF3F" transform="translate(0,0)"/>
<path d="" fill="#FFBF3F" transform="translate(0,0)"/>
<path d="" fill="#FFFF55" transform="translate(0,0)"/>
<path d="" fill="#FFFF55" transform="translate(0,0)"/>
</svg>
