<svg width="126" height="31" viewBox="0 0 126 31" fill="none" xmlns="http://www.w3.org/2000/svg">
<path d="M9.44673 29.1833C24.29 25.974 39.1332 22.7646 46.9803 18.1026C54.8275 13.4405 55.2286 7.42295 54.6329 4.12242C54.0373 0.821897 52.4326 0.420728 50.603 1.61816C48.7734 2.81558 46.7676 5.62377 46.336 8.67508C45.9045 11.7264 47.108 14.9358 49.7338 16.7896C52.3597 18.6435 56.3713 19.0447 59.0397 17.6467C61.7081 16.2487 62.9116 13.0393 63.331 13.1913C63.7504 13.3432 63.3493 16.9538 63.5438 19.4155C63.7383 21.8772 64.5406 23.0807 66.9598 21.2937C69.3789 19.5066 73.3906 14.6926 75.2567 13.4162C76.784 12.3714 76.3082 18.6314 78.3141 20.0598C79.9543 21.2278 84.3316 17.8777 86.3982 17.8473C88.4649 17.8169 88.4649 19.8227 90.0695 20.856C101.283 28.0767 115.598 18.6435 116.425 19.2514C119.642 21.6166 100.707 21.0627 83.3287 23.494C65.3052 26.0157 44.8104 25.9253 24.7884 28.3567C15.6282 29.469 8.37695 29.1833 4.45643 28.1804C0.535916 27.1775 0.134747 25.1716 2.3351 22.5336C8.18442 15.5209 17.1176 12.9785 23.3782 11.3678C46.7372 5.35796 73.8404 2.43873 79.1103 3.64224C80.7697 4.84574 80.3685 7.25276 79.5601 9.09449C78.7517 10.9362 77.5482 12.1397 76.3082 13.3797" stroke="#212529" stroke-width="2" stroke-linecap="round"/>
<path d="M124.934 14.5955L123.719 10.9485" stroke="#212529" stroke-width="2" stroke-linecap="round"/>
</svg>
